<?xml version="1.0" standalone="no"?>
<!DOCTYPE svg PUBLIC "-//W3C//DTD SVG 1.1//EN" "http://www.w3.org/Graphics/SVG/1.1/DTD/svg11.dtd" >
<svg>
<metadata>
Created by FontForge 20090622 at Thu Oct 17 04:35:40 2019
 By deploy user
2017 | All Rights Reserved, Jeremy Vessey
</metadata>
<defs>
<font id="TheNational-Bold" horiz-adv-x="308" >
  <font-face 
    font-family="The National Bold"
    font-weight="400"
    font-stretch="normal"
    units-per-em="1000"
    panose-1="0 0 5 0 0 0 0 0 0 0"
    ascent="800"
    descent="-200"
    x-height="903"
    cap-height="903"
    bbox="-541 -200 1044 1112"
    underline-thickness="50"
    underline-position="-50"
    unicode-range="U+0020-U+25CA"
  />
<missing-glyph horiz-adv-x="640" 
d="M525 1080v-1280h-406v1280h406zM426 994h-211v-42h83v-47h-84v-43h212v43h-84v47h84v42zM342 829h-128v-133h212v44h-84v89zM298 786v-46h-42v46h42zM426 661h-212v-42h84v-47h-84v-42h128v89h84v42zM426 585h-42v-85h-170v-43h212v128zM426 428h-128v-71h44v29h42v-60
h-128v102h-42v-144h212v144zM426 207h-212v-145h212v145zM384 165v-60h-128v60h128zM426 33h-212v-42h89l-89 -60v-43h212v43h-130l89 60h41v42z" />
    <glyph glyph-name=".notdef" horiz-adv-x="640" 
d="M525 1080v-1280h-406v1280h406zM426 994h-211v-42h83v-47h-84v-43h212v43h-84v47h84v42zM342 829h-128v-133h212v44h-84v89zM298 786v-46h-42v46h42zM426 661h-212v-42h84v-47h-84v-42h128v89h84v42zM426 585h-42v-85h-170v-43h212v128zM426 428h-128v-71h44v29h42v-60
h-128v102h-42v-144h212v144zM426 207h-212v-145h212v145zM384 165v-60h-128v60h128zM426 33h-212v-42h89l-89 -60v-43h212v43h-130l89 60h41v42z" />
    <glyph glyph-name=".null" horiz-adv-x="0" 
 />
    <glyph glyph-name="nonmarkingreturn" horiz-adv-x="333" 
 />
    <glyph glyph-name="space" unicode=" " horiz-adv-x="250" 
 />
    <glyph glyph-name="exclam" unicode="!" horiz-adv-x="147" 
d="M30 255v645h87v-645h-87zM30 0v165h87v-165h-87z" />
    <glyph glyph-name="quotedbl" unicode="&#x22;" horiz-adv-x="274" 
d="M44 736l-14 220h86l-12 -220h-60zM172 736l-14 220h86l-12 -220h-60z" />
    <glyph glyph-name="numbersign" unicode="#" horiz-adv-x="551" 
d="M148 0v205h-118v86h118v142h-118v87h118v194h86v-194h77v194h86v-194h124v-87h-124v-142h124v-86h-124v-205h-86v205h-77v-205h-86zM234 291h77v142h-77v-142z" />
    <glyph glyph-name="dollar" unicode="$" 
d="M111 -121v112q-36 14 -58.5 46.5t-22.5 73.5v174h86v-174q0 -17 11 -29.5t27 -12.5t27 12.5t11 29.5v77q0 131 -52 248l-68 152q-42 96 -42 200q0 41 22.5 73.5t58.5 46.5v113h86v-113q36 -14 58.5 -46.5t22.5 -73.5v-109h-86v109q0 17 -11 29.5t-27 12.5t-27 -12.5
t-11 -29.5q0 -86 35 -165l68 -152q59 -136 59 -283v-77q0 -41 -22.5 -73.5t-58.5 -46.5v-112h-86z" />
    <glyph glyph-name="percent" unicode="%" horiz-adv-x="756" 
d="M170 0l327 900h92l-328 -900h-91zM162 460q-55 0 -93.5 39t-38.5 94v72q0 55 38.5 94t93.5 39t94 -39t39 -94v-72q0 -55 -39 -94t-94 -39zM162 546q20 0 33.5 14t13.5 33v72q0 19 -13.5 33t-33.5 14q-19 0 -32.5 -14t-13.5 -33v-72q0 -19 13.5 -33t32.5 -14zM593 57
q-55 0 -94 39t-39 94v72q0 55 39 94t94 39t94 -39t39 -94v-72q0 -55 -39 -94t-94 -39zM593 143q19 0 33 13.5t14 33.5v72q0 19 -14 32.5t-33 13.5t-33 -13.5t-14 -32.5v-72q0 -20 14 -33.5t33 -13.5z" />
    <glyph glyph-name="ampersand" unicode="&#x26;" horiz-adv-x="350" 
d="M154 1q-52 0 -88 37.5t-36 90.5v287q0 49 31 85q-31 38 -31 85v204q0 53 36 90t88 37t88 -37t36 -90v-98h-86v98q0 17 -11 29t-27 12t-27 -12t-11 -29v-204q0 -17 11 -29.5t27 -12.5h196v-86h-72v-457h-124zM154 87h38v371h-38q-16 0 -27 -12.5t-11 -29.5v-287
q0 -17 11 -29.5t27 -12.5z" />
    <glyph glyph-name="quotesingle" unicode="'" horiz-adv-x="147" 
d="M93 672l-27 20q12 18 13 45h-49v166h87v-154q0 -23 -5 -41q-4 -20 -19 -36z" />
    <glyph glyph-name="parenleft" unicode="(" horiz-adv-x="320" 
d="M230 -24q-97 94 -148.5 217t-51.5 259q0 134 50.5 255.5t144.5 215.5l61 -61q-82 -82 -126 -188t-44 -222q0 -118 45 -224.5t129 -189.5z" />
    <glyph glyph-name="parenright" unicode=")" horiz-adv-x="320" 
d="M95 -24l-61 61q82 82 126 188t44 222q0 118 -45 224.5t-129 189.5l60 62q97 -95 148.5 -218t51.5 -258q0 -134 -50.5 -255.5t-144.5 -215.5z" />
    <glyph glyph-name="asterisk" unicode="*" horiz-adv-x="406" 
d="M159 671v89l-85 -50l-44 76l83 48l-83 43l40 77l89 -46v92h87v-89l86 50l43 -75l-82 -48l83 -44l-40 -77l-90 47v-93h-87z" />
    <glyph glyph-name="plus" unicode="+" horiz-adv-x="433" 
d="M173 265v143h-143v87h143v143h86v-143h144v-87h-144v-143h-86z" />
    <glyph glyph-name="comma" unicode="," horiz-adv-x="147" 
d="M93 -66l-27 20q12 18 13 45h-49v166h87v-154q0 -24 -5 -41q-4 -20 -19 -36z" />
    <glyph glyph-name="hyphen" unicode="-" horiz-adv-x="372" 
d="M30 409v86h312v-86h-312z" />
    <glyph glyph-name="period" unicode="." horiz-adv-x="147" 
d="M30 0v165h87v-165h-87z" />
    <glyph glyph-name="slash" unicode="/" horiz-adv-x="479" 
d="M30 0l327 900h92l-328 -900h-91z" />
    <glyph glyph-name="zero" unicode="0" 
d="M154 -17q-52 0 -88 37.5t-36 90.5v677q0 53 36 90.5t88 37.5t88 -37.5t36 -90.5v-677q0 -53 -36 -90.5t-88 -37.5zM154 69q16 0 27 12.5t11 29.5v677q0 17 -11 29.5t-27 12.5t-27 -12.5t-11 -29.5v-677q0 -17 11 -29.5t27 -12.5z" />
    <glyph glyph-name="one" unicode="1" horiz-adv-x="222" 
d="M106 0v756l-44 -68l-72 47l108 166h94v-901h-86z" />
    <glyph glyph-name="two" unicode="2" horiz-adv-x="288" 
d="M20 1v102q0 191 86 358q76 149 76 319v11q0 17 -11 29.5t-27 12.5t-27 -12.5t-11 -29.5v-109h-86v109q0 53 36 90.5t88 37.5t88 -37.5t36 -90.5v-11q0 -192 -86 -358q-76 -150 -76 -319v-16h160v-86h-246z" />
    <glyph glyph-name="three" unicode="3" horiz-adv-x="298" 
d="M144 -16q-52 0 -88 37.5t-36 90.5v151h86v-151q0 -17 11 -29.5t27 -12.5t27 12.5t11 29.5v306q0 17 -11 29.5t-27 12.5h-55v86h55q16 0 27 12.5t11 29.5v203q0 18 -11 30t-27 12t-27 -12t-11 -30v-97h-86v97q0 53 36 90.5t88 37.5t88 -37.5t36 -90.5v-203q0 -47 -31 -85
q31 -38 31 -85v-306q0 -53 -36 -90.5t-88 -37.5z" />
    <glyph glyph-name="four" unicode="4" horiz-adv-x="350" 
d="M185 0v212h-185l184 690h87v-604h69v-86h-69v-212h-86zM112 298h73v274z" />
    <glyph glyph-name="five" unicode="5" horiz-adv-x="312" 
d="M154 -15q-52 0 -88 37t-36 89v150h86v-150q0 -17 11 -28.5t27 -11.5t27 11.5t11 28.5v334q0 16 -11 27.5t-27 11.5t-27 -11.5t-11 -27.5h-86v457h262v-86h-176v-252q18 6 38 6q52 0 88 -36.5t36 -88.5v-334q0 -52 -36 -89t-88 -37z" />
    <glyph glyph-name="six" unicode="6" 
d="M154 -15q-52 0 -88 36.5t-36 88.5v295v12v377q0 51 36 87.5t88 36.5t88 -36.5t36 -87.5v-148h-86v148q0 16 -11 27t-27 11t-27 -11t-11 -27v-270q24 6 38 6q52 0 88 -36.5t36 -88.5v-295q0 -52 -36 -88.5t-88 -36.5zM154 71q16 0 27 11.5t11 27.5v295q0 16 -11 27t-27 11
t-27 -11t-11 -27v-295q0 -16 11 -27.5t27 -11.5z" />
    <glyph glyph-name="seven" unicode="7" horiz-adv-x="340" 
d="M49 0q0 164 32 343t63 281t66 192h-180v86h310l-27 -61q-4 -9 -19.5 -47t-44 -125.5t-53 -184.5t-43 -229.5t-18.5 -254.5h-86z" />
    <glyph glyph-name="eight" unicode="8" 
d="M154 -15q-52 0 -88 36.5t-36 88.5v295q0 47 30 82q-30 33 -30 81v226q0 51 36 87.5t88 36.5t88 -36.5t36 -87.5v-226q0 -48 -30 -81q30 -35 30 -82v-295q0 -52 -36 -88.5t-88 -36.5zM154 530q16 0 27 11t11 27v226q0 16 -11 27t-27 11t-27 -11t-11 -27v-226q0 -16 11 -27
t27 -11zM154 71q16 0 27 11.5t11 27.5v295q0 16 -11 27t-27 11t-27 -11t-11 -27v-295q0 -16 11 -27.5t27 -11.5z" />
    <glyph glyph-name="nine" unicode="9" 
d="M154 -17q-52 0 -88 36.5t-36 88.5v147h86v-147q0 -16 11 -27.5t27 -11.5t27 11.5t11 27.5v270q-18 -6 -38 -6q-52 0 -88 36.5t-36 87.5v296q0 51 36 87.5t88 36.5t88 -36.5t36 -87.5v-296v-11v-377q0 -52 -36 -88.5t-88 -36.5zM154 458q16 0 27 11t11 27v296q0 16 -11 27
t-27 11t-27 -11t-11 -27v-296q0 -16 11 -27t27 -11z" />
    <glyph glyph-name="colon" unicode=":" horiz-adv-x="147" 
d="M30 368v165h87v-165h-87zM30 0v165h87v-165h-87z" />
    <glyph glyph-name="semicolon" unicode=";" horiz-adv-x="147" 
d="M30 368v165h87v-165h-87zM93 -66l-27 20q12 18 13 45h-49v166h87v-154q0 -24 -5 -41q-4 -20 -19 -36z" />
    <glyph glyph-name="less" unicode="&#x3c;" horiz-adv-x="463" 
d="M383 201l-353 251l353 250l50 -70l-254 -180l254 -181z" />
    <glyph glyph-name="equal" unicode="=" horiz-adv-x="372" 
d="M30 489v86h312v-86h-312zM30 328v86h312v-86h-312z" />
    <glyph glyph-name="greater" unicode="&#x3e;" horiz-adv-x="464" 
d="M80 202l-50 70l255 180l-255 181l50 70l354 -251z" />
    <glyph glyph-name="question" unicode="?" 
d="M59 228q2 72 11 111t46 111q76 150 76 319v12q0 17 -11 29.5t-27 12.5t-27 -12.5t-11 -29.5v-109h-86v109q0 53 36 90.5t88 37.5t88 -37.5t36 -90.5v-12q0 -191 -86 -358q-31 -61 -39 -91.5t-8 -90.5zM61 0v165h87v-165h-87z" />
    <glyph glyph-name="at" unicode="@" horiz-adv-x="634" 
d="M479 -4q-46 0 -84 33q-35 -28 -78 -28q-52 0 -88.5 36.5t-36.5 88.5v210q0 51 36.5 87.5t88.5 36.5q20 0 38 -6v68q0 16 -11 27t-27 11t-27.5 -11t-11.5 -27v-35h-86v35q0 52 36.5 88t88.5 36q51 0 87.5 -36t36.5 -88v-401q0 -16 11 -27t27 -11t27.5 11t11.5 27v494
q0 83 -59 142t-142 59t-142 -59t-59 -142v-615h-86v615q0 119 84 203t203 84t203 -84t84 -203v-494q0 -52 -36.5 -88.5t-88.5 -36.5zM317 87q16 0 27 11.5t11 27.5v210q0 16 -11 27t-27 11t-27.5 -11t-11.5 -27v-210q0 -16 11.5 -27.5t27.5 -11.5z" />
    <glyph glyph-name="A" unicode="A" horiz-adv-x="332" 
d="M10 0l112 903h87l113 -903h-87l-24 196h-91l-25 -196h-85zM131 282h69l-34 273z" />
    <glyph glyph-name="B" unicode="B" horiz-adv-x="305" 
d="M30 0v902h107q58 0 99.5 -41.5t41.5 -100.5v-210q0 -55 -37 -95q44 -42 44 -102v-210q0 -58 -41.5 -99.5t-100.5 -41.5h-27v-2h-86zM116 495h21q23 0 39 16.5t16 38.5v210q0 23 -16 39.5t-39 16.5h-21v-321zM116 88h27q23 0 39.5 16t16.5 39v210q0 23 -16.5 39.5
t-39.5 16.5h-27v-321z" />
    <glyph glyph-name="C" unicode="C" horiz-adv-x="298" 
d="M154 -15q-52 0 -88 37.5t-36 90.5v677q0 53 36 90.5t88 37.5t88 -37.5t36 -90.5v-139h-86v139q0 17 -11 29.5t-27 12.5t-27 -12.5t-11 -29.5v-677q0 -17 11 -29.5t27 -12.5t27 12.5t11 29.5v135h86v-135q0 -53 -36 -90.5t-88 -37.5z" />
    <glyph glyph-name="D" unicode="D" 
d="M30 1v901h100q62 0 105 -43t43 -105v-604q0 -62 -43.5 -105.5t-104.5 -43.5h-100zM116 88h14q26 0 44 18t18 44v604q0 26 -18 44t-44 18h-14v-728z" />
    <glyph glyph-name="E" unicode="E" horiz-adv-x="272" 
d="M30 1v901h222v-86h-136v-321h107v-86h-107v-322h136v-86h-222z" />
    <glyph glyph-name="F" unicode="F" horiz-adv-x="272" 
d="M30 -1v903h222v-86h-136v-321h107v-86h-107v-410h-86z" />
    <glyph glyph-name="G" unicode="G" 
d="M154 -15q-52 0 -88 37.5t-36 90.5v677q0 53 36 90.5t88 37.5t88 -37.5t36 -90.5v-139h-86v139q0 17 -11 29.5t-27 12.5t-27 -12.5t-11 -29.5v-677q0 -17 11 -29.5t27 -12.5t27 12.5t11 29.5v222h-53v86h139v-308q0 -53 -36 -90.5t-88 -37.5z" />
    <glyph glyph-name="H" unicode="H" 
d="M30 0v903h86v-410h76v410h86v-903h-86v407h-76v-407h-86z" />
    <glyph glyph-name="I" unicode="I" horiz-adv-x="166" 
d="M40 0v903h86v-903h-86z" />
    <glyph glyph-name="J" unicode="J" horiz-adv-x="298" 
d="M144 -17q-52 0 -88 37.5t-36 90.5v135h86v-135q0 -17 11 -29.5t27 -12.5t27 12.5t11 29.5v792h86v-792q0 -53 -36 -90.5t-88 -37.5z" />
    <glyph glyph-name="K" unicode="K" horiz-adv-x="310" 
d="M30 0v903h86v-377l95 377h89l-110 -433l109 -470h-89l-94 410v-410h-86z" />
    <glyph glyph-name="L" unicode="L" horiz-adv-x="272" 
d="M30 0v903h86v-817h136v-86h-222z" />
    <glyph glyph-name="M" unicode="M" horiz-adv-x="481" 
d="M30 0v903h86l124 -624l124 624h87v-903h-86v464l-84 -420h-82l-83 418v-462h-86z" />
    <glyph glyph-name="N" unicode="N" horiz-adv-x="350" 
d="M30 0v903h86l118 -519v519h86v-903h-87l-117 515v-515h-86z" />
    <glyph glyph-name="O" unicode="O" 
d="M154 -17q-52 0 -88 37.5t-36 90.5v677q0 53 36 90.5t88 37.5t88 -37.5t36 -90.5v-677q0 -53 -36 -90.5t-88 -37.5zM154 69q16 0 27 12.5t11 29.5v677q0 17 -11 29.5t-27 12.5t-27 -12.5t-11 -29.5v-677q0 -17 11 -29.5t27 -12.5z" />
    <glyph glyph-name="P" unicode="P" horiz-adv-x="298" 
d="M30 0v902h107q58 0 99.5 -41.5t41.5 -100.5v-210q0 -58 -41 -99.5t-100 -41.5h-21v-409h-86zM116 495h21q23 0 39 16.5t16 38.5v210q0 23 -16 39.5t-39 16.5h-21v-321z" />
    <glyph glyph-name="Q" unicode="Q" 
d="M163 -109l-40 98q-40 11 -66.5 45.5t-26.5 78.5v677q0 53 36 90.5t88 37.5t88 -37.5t36 -90.5v-677q0 -36 -18 -66t-48 -47l44 -109h-93zM154 71q16 0 27 12.5t11 29.5v677q0 17 -11 29.5t-27 12.5t-27 -12.5t-11 -29.5v-677q0 -17 11 -29.5t27 -12.5z" />
    <glyph glyph-name="R" unicode="R" horiz-adv-x="303" 
d="M30 0v903h109q59 0 101 -42t42 -101v-209q0 -70 -56 -113l57 -438h-91l-53 408h-19v-408h-90zM120 498h19q22 0 37.5 15.5t15.5 37.5v209q0 22 -15.5 37.5t-37.5 15.5h-19v-315z" />
    <glyph glyph-name="S" unicode="S" horiz-adv-x="288" 
d="M144 -15q-52 0 -88 37.5t-36 90.5v146h86v-146q0 -17 11 -29.5t27 -12.5t27 12.5t11 29.5v77q0 131 -52 248l-68 152q-42 94 -42 200q0 53 36 90.5t88 37.5t88 -37.5t36 -90.5v-119h-86v119q0 17 -11 29.5t-27 12.5t-27 -12.5t-11 -29.5q0 -86 35 -165l68 -152
q59 -136 59 -283v-77q0 -53 -36 -90.5t-88 -37.5z" />
    <glyph glyph-name="T" unicode="T" horiz-adv-x="312" 
d="M113 0v817h-103v86h292v-86h-103v-817h-86z" />
    <glyph glyph-name="U" unicode="U" 
d="M154 -15q-52 0 -88 37.5t-36 90.5v790h86v-790q0 -17 11 -29.5t27 -12.5t27 12.5t11 29.5v790h86v-790q0 -53 -36 -90.5t-88 -37.5z" />
    <glyph glyph-name="V" unicode="V" horiz-adv-x="334" 
d="M123 0l-113 903h86l71 -558l70 558h87l-114 -903h-87z" />
    <glyph glyph-name="W" unicode="W" horiz-adv-x="488" 
d="M105 0l-95 903h86l53 -494l52 494h86l52 -494l53 494h86l-95 -903h-87l-52 490l-52 -490h-87z" />
    <glyph glyph-name="X" unicode="X" horiz-adv-x="316" 
d="M10 0l104 452l-104 451h88l60 -259l60 259h88l-104 -451l104 -452h-88l-60 260l-60 -260h-88z" />
    <glyph glyph-name="Y" unicode="Y" horiz-adv-x="283" 
d="M98 0v374l-88 529h87l44 -265l45 265h87l-89 -529v-374h-86z" />
    <glyph glyph-name="Z" unicode="Z" horiz-adv-x="296" 
d="M10 0l170 817h-166v86h272l-170 -817h166v-86h-272z" />
    <glyph glyph-name="bracketleft" unicode="[" horiz-adv-x="232" 
d="M30 0v900h172v-87h-86v-728h86v-85h-172z" />
    <glyph glyph-name="backslash" unicode="\" horiz-adv-x="479" 
d="M357 0l-327 900h91l328 -900h-92z" />
    <glyph glyph-name="bracketright" unicode="]" horiz-adv-x="232" 
d="M30 0v86h86v729h-86v85h172v-900h-172z" />
    <glyph glyph-name="asciicircum" unicode="^" horiz-adv-x="446" 
d="M100 680l-70 50l193 272l193 -272l-71 -50l-122 173z" />
    <glyph glyph-name="underscore" unicode="_" horiz-adv-x="699" 
d="M30 1v86h639v-86h-639z" />
    <glyph glyph-name="a" unicode="a" horiz-adv-x="332" 
d="M10 0l112 903h87l113 -903h-87l-24 196h-91l-25 -196h-85zM131 282h69l-34 273z" />
    <glyph glyph-name="b" unicode="b" horiz-adv-x="305" 
d="M30 0v902h107q58 0 99.5 -41.5t41.5 -100.5v-210q0 -55 -37 -95q44 -42 44 -102v-210q0 -58 -41.5 -99.5t-100.5 -41.5h-27v-2h-86zM116 495h21q23 0 39 16.5t16 38.5v210q0 23 -16 39.5t-39 16.5h-21v-321zM116 88h27q23 0 39.5 16t16.5 39v210q0 23 -16.5 39.5
t-39.5 16.5h-27v-321z" />
    <glyph glyph-name="c" unicode="c" horiz-adv-x="298" 
d="M154 -15q-52 0 -88 37.5t-36 90.5v677q0 53 36 90.5t88 37.5t88 -37.5t36 -90.5v-139h-86v139q0 17 -11 29.5t-27 12.5t-27 -12.5t-11 -29.5v-677q0 -17 11 -29.5t27 -12.5t27 12.5t11 29.5v135h86v-135q0 -53 -36 -90.5t-88 -37.5z" />
    <glyph glyph-name="d" unicode="d" 
d="M30 1v901h100q62 0 105 -43t43 -105v-604q0 -62 -43.5 -105.5t-104.5 -43.5h-100zM116 88h14q26 0 44 18t18 44v604q0 26 -18 44t-44 18h-14v-728z" />
    <glyph glyph-name="e" unicode="e" horiz-adv-x="272" 
d="M30 1v901h222v-86h-136v-321h107v-86h-107v-322h136v-86h-222z" />
    <glyph glyph-name="f" unicode="f" horiz-adv-x="272" 
d="M30 -1v903h222v-86h-136v-321h107v-86h-107v-410h-86z" />
    <glyph glyph-name="g" unicode="g" 
d="M154 -15q-52 0 -88 37.5t-36 90.5v677q0 53 36 90.5t88 37.5t88 -37.5t36 -90.5v-139h-86v139q0 17 -11 29.5t-27 12.5t-27 -12.5t-11 -29.5v-677q0 -17 11 -29.5t27 -12.5t27 12.5t11 29.5v222h-53v86h139v-308q0 -53 -36 -90.5t-88 -37.5z" />
    <glyph glyph-name="h" unicode="h" 
d="M30 0v903h86v-410h76v410h86v-903h-86v407h-76v-407h-86z" />
    <glyph glyph-name="i" unicode="i" horiz-adv-x="166" 
d="M40 0v903h86v-903h-86z" />
    <glyph glyph-name="j" unicode="j" horiz-adv-x="298" 
d="M144 -17q-52 0 -88 37.5t-36 90.5v135h86v-135q0 -17 11 -29.5t27 -12.5t27 12.5t11 29.5v792h86v-792q0 -53 -36 -90.5t-88 -37.5z" />
    <glyph glyph-name="k" unicode="k" horiz-adv-x="310" 
d="M30 0v903h86v-377l95 377h89l-110 -433l109 -470h-89l-94 410v-410h-86z" />
    <glyph glyph-name="l" unicode="l" horiz-adv-x="272" 
d="M30 0v903h86v-817h136v-86h-222z" />
    <glyph glyph-name="m" unicode="m" horiz-adv-x="481" 
d="M30 0v903h86l124 -624l124 624h87v-903h-86v464l-84 -420h-82l-83 418v-462h-86z" />
    <glyph glyph-name="n" unicode="n" horiz-adv-x="350" 
d="M30 0v903h86l118 -519v519h86v-903h-87l-117 515v-515h-86z" />
    <glyph glyph-name="o" unicode="o" 
d="M154 -17q-52 0 -88 37.5t-36 90.5v677q0 53 36 90.5t88 37.5t88 -37.5t36 -90.5v-677q0 -53 -36 -90.5t-88 -37.5zM154 69q16 0 27 12.5t11 29.5v677q0 17 -11 29.5t-27 12.5t-27 -12.5t-11 -29.5v-677q0 -17 11 -29.5t27 -12.5z" />
    <glyph glyph-name="p" unicode="p" horiz-adv-x="298" 
d="M30 0v902h107q58 0 99.5 -41.5t41.5 -100.5v-210q0 -58 -41 -99.5t-100 -41.5h-21v-409h-86zM116 495h21q23 0 39 16.5t16 38.5v210q0 23 -16 39.5t-39 16.5h-21v-321z" />
    <glyph glyph-name="q" unicode="q" 
d="M163 -109l-40 98q-40 11 -66.5 45.5t-26.5 78.5v677q0 53 36 90.5t88 37.5t88 -37.5t36 -90.5v-677q0 -36 -18 -66t-48 -47l44 -109h-93zM154 71q16 0 27 12.5t11 29.5v677q0 17 -11 29.5t-27 12.5t-27 -12.5t-11 -29.5v-677q0 -17 11 -29.5t27 -12.5z" />
    <glyph glyph-name="r" unicode="r" horiz-adv-x="303" 
d="M30 0v903h109q59 0 101 -42t42 -101v-209q0 -70 -56 -113l57 -438h-91l-53 408h-19v-408h-90zM120 498h19q22 0 37.5 15.5t15.5 37.5v209q0 22 -15.5 37.5t-37.5 15.5h-19v-315z" />
    <glyph glyph-name="s" unicode="s" horiz-adv-x="288" 
d="M144 -15q-52 0 -88 37.5t-36 90.5v146h86v-146q0 -17 11 -29.5t27 -12.5t27 12.5t11 29.5v77q0 131 -52 248l-68 152q-42 94 -42 200q0 53 36 90.5t88 37.5t88 -37.5t36 -90.5v-119h-86v119q0 17 -11 29.5t-27 12.5t-27 -12.5t-11 -29.5q0 -86 35 -165l68 -152
q59 -136 59 -283v-77q0 -53 -36 -90.5t-88 -37.5z" />
    <glyph glyph-name="t" unicode="t" horiz-adv-x="312" 
d="M113 0v817h-103v86h292v-86h-103v-817h-86z" />
    <glyph glyph-name="u" unicode="u" 
d="M154 -15q-52 0 -88 37.5t-36 90.5v790h86v-790q0 -17 11 -29.5t27 -12.5t27 12.5t11 29.5v790h86v-790q0 -53 -36 -90.5t-88 -37.5z" />
    <glyph glyph-name="v" unicode="v" horiz-adv-x="334" 
d="M123 0l-113 903h86l71 -558l70 558h87l-114 -903h-87z" />
    <glyph glyph-name="w" unicode="w" horiz-adv-x="488" 
d="M105 0l-95 903h86l53 -494l52 494h86l52 -494l53 494h86l-95 -903h-87l-52 490l-52 -490h-87z" />
    <glyph glyph-name="x" unicode="x" horiz-adv-x="316" 
d="M10 0l104 452l-104 451h88l60 -259l60 259h88l-104 -451l104 -452h-88l-60 260l-60 -260h-88z" />
    <glyph glyph-name="y" unicode="y" horiz-adv-x="283" 
d="M98 0v374l-88 529h87l44 -265l45 265h87l-89 -529v-374h-86z" />
    <glyph glyph-name="z" unicode="z" horiz-adv-x="296" 
d="M10 0l170 817h-166v86h272l-170 -817h166v-86h-272z" />
    <glyph glyph-name="braceleft" unicode="{" horiz-adv-x="306" 
d="M262 0q-62 10 -112.5 48.5t-57.5 95.5q-5 46 29 116q10 22 13.5 31.5t7 25.5t-2.5 23q-12 41 -83 70l-26 11v60l26 11q71 29 83 69q8 24 -18 81q-9 19 -13.5 30t-11 33.5t-5 36t5.5 38.5q15 49 62.5 81t102.5 40l14 -85q-33 -5 -61.5 -21.5t-34.5 -39.5q-7 -21 19 -76
l14 -32.5t10.5 -32t5 -40t-7.5 -39.5q-15 -49 -62 -84q47 -37 62 -84q7 -20 7.5 -39.5t-5 -40.5t-10 -32t-14.5 -32q-24 -48 -21 -69q3 -26 33.5 -45t64.5 -24z" />
    <glyph glyph-name="bar" unicode="|" horiz-adv-x="146" 
d="M30 0v900h86v-900h-86z" />
    <glyph glyph-name="braceright" unicode="}" horiz-adv-x="306" 
d="M43 0l-13 85q31 5 60 22t36 39q7 23 -19 76l-14.5 32.5t-11 32.5t-4.5 40t7 40q15 48 63 84q-48 35 -63 84q-7 20 -7.5 40t5 39.5t11 32l14.5 31.5q23 50 20 69q-3 26 -33.5 45t-63.5 24l13 85q62 -9 112.5 -47.5t57.5 -96.5q5 -46 -29 -116q-26 -56 -18 -80
q13 -40 83 -69l27 -11v-60l-27 -11q-69 -29 -83 -70q-6 -16 -1 -33t20 -48q8 -17 11 -24.5t8.5 -24.5t7.5 -29t1.5 -28.5t-5.5 -31.5q-15 -49 -62.5 -81t-102.5 -40z" />
    <glyph glyph-name="asciitilde" unicode="~" horiz-adv-x="550" 
d="M30 367q16 72 37 102q40 61 124 61q23 0 35 -4q16 -3 27 -8l63 -23l35 -12q6 -2 20 -2q30 0 43 16q16 23 20 39h86q-11 -65 -47 -114q-36 -47 -102 -47q-17 0 -57 10q-20 5 -41 12l-53 17q-12 6 -22 6q-7 2 -21 2q-26 0 -39 -13q-17 -14 -24 -42h-84z" />
    <glyph glyph-name="exclamdown" unicode="&#xa1;" horiz-adv-x="147" 
d="M30 735v165h87v-165h-87zM30 0v645h87v-645h-87z" />
    <glyph glyph-name="cent" unicode="&#xa2;" horiz-adv-x="309" 
d="M112 42v63q-36 14 -59 47t-23 73v442q0 41 23 73.5t59 46.5v68h86v-68q36 -14 58.5 -46.5t22.5 -73.5v-139h-86v139q0 17 -11 29.5t-27 12.5t-27.5 -12.5t-11.5 -29.5v-442q0 -17 11.5 -29.5t27.5 -12.5t27 12.5t11 29.5v135h86v-135q0 -40 -22.5 -73t-58.5 -47v-63h-86z
" />
    <glyph glyph-name="sterling" unicode="&#xa3;" horiz-adv-x="412" 
d="M30 1l31 63q44 87 67 175h-38v86h58q24 135 7 277l-22 188q0 53 36.5 90.5t87.5 37.5q52 0 88.5 -37.5t36.5 -90.5v-139h-86v139q0 17 -11.5 29.5t-27.5 12.5q-15 0 -26 -11.5t-12 -28.5l22 -179q17 -145 -6 -288h137v-86h-155q-21 -84 -50 -152h200v-86h-337z" />
    <glyph glyph-name="currency" unicode="&#xa4;" horiz-adv-x="615" 
d="M523 190l-80 80q-62 -42 -136 -42q-75 0 -137 42l-78 -78l-61 61l79 78q-43 61 -43 136q0 76 43 137l-80 80l60 61l80 -80q62 42 137 42q74 0 136 -42l82 81l60 -61l-81 -81q43 -61 43 -137q0 -75 -43 -136l80 -80zM201 362q43 -44 105.5 -44t106.5 44q43 44 43 106
t-43 105q-44 44 -106.5 44t-105.5 -44q-43 -43 -43 -105t43 -106z" />
    <glyph glyph-name="yen" unicode="&#xa5;" horiz-adv-x="362" 
d="M138 0v291h-108v48h108v16l-4 23h-104v48h96l-80 474h88l47 -281l47 281h87l-79 -474h96v-48h-104l-4 -23v-16h108v-48h-108v-291h-86z" />
    <glyph glyph-name="brokenbar" unicode="&#xa6;" horiz-adv-x="146" 
d="M30 500v277h86v-277h-86zM30 113v275h86v-275h-86z" />
    <glyph glyph-name="copyright" unicode="&#xa9;" horiz-adv-x="870" 
d="M435 46q-168 0 -286.5 119t-118.5 287q0 167 118.5 286t286.5 119q167 0 286 -119t119 -286q0 -168 -119 -287t-286 -119zM435 133q132 0 225.5 93.5t93.5 225.5t-93.5 225.5t-225.5 93.5t-225.5 -93.5t-93.5 -225.5t93.5 -225.5t225.5 -93.5zM435 206q-48 0 -81.5 34.5
t-33.5 83.5v255q0 50 33.5 84.5t81.5 34.5t81.5 -34.5t33.5 -84.5v-62h-86v62q0 14 -8.5 23.5t-20.5 9.5t-20.5 -9.5t-8.5 -23.5v-255q0 -13 8.5 -22.5t20.5 -9.5t20.5 9.5t8.5 22.5v53h86v-53q0 -49 -33.5 -83.5t-81.5 -34.5z" />
    <glyph glyph-name="guillemotleft" unicode="&#xab;" horiz-adv-x="777" 
d="M383 201l-353 251l353 250l50 -70l-254 -180l254 -181zM697 201l-354 251l354 250l50 -70l-255 -180l255 -181z" />
    <glyph glyph-name="registered" unicode="&#xae;" horiz-adv-x="870" 
d="M435 51q-168 0 -286.5 119t-118.5 287q0 167 118.5 286t286.5 119q167 0 286 -119t119 -286q0 -168 -119 -287t-286 -119zM435 138q132 0 225.5 93.5t93.5 225.5t-93.5 225.5t-225.5 93.5t-225.5 -93.5t-93.5 -225.5t93.5 -225.5t225.5 -93.5zM310 211v491h102
q49 0 87.5 -32t48.5 -79q5 -28 3 -65q0 -33 -6 -57q-9 -37 -35 -60l50 -198h-92l-42 162q-1 0 -4.5 -0.5t-5.5 -0.5q-5 -1 -16 -1v-160h-90zM400 461q5 0 7 1q46 4 51 28q3 11 3 38q2 28 -1 45q-4 16 -18 27.5t-30 11.5h-12v-151z" />
    <glyph glyph-name="degree" unicode="&#xb0;" horiz-adv-x="325" 
d="M162 662q-55 0 -93.5 39t-38.5 94v72q0 55 38.5 94t93.5 39t94 -39t39 -94v-72q0 -55 -39 -94t-94 -39zM162 748q20 0 33.5 14t13.5 33v72q0 19 -13.5 33t-33.5 14q-19 0 -32.5 -14t-13.5 -33v-72q0 -19 13.5 -33t32.5 -14z" />
    <glyph glyph-name="plusminus" unicode="&#xb1;" horiz-adv-x="436" 
d="M176 320v143h-143v87h143v143h86v-143h144v-87h-144v-143h-86zM30 155v86h373v-86h-373z" />
    <glyph glyph-name="paragraph" unicode="&#xb6;" horiz-adv-x="502" 
d="M252 0v368q-95 15 -158.5 89.5t-63.5 172.5q0 99 64 176.5t158 93.5h86v-900h-86zM386 0v900h86v-900h-86z" />
    <glyph glyph-name="periodcentered" unicode="&#xb7;" horiz-adv-x="147" 
d="M30 368v165h87v-165h-87z" />
    <glyph glyph-name="guillemotright" unicode="&#xbb;" horiz-adv-x="777" 
d="M80 202l-50 70l255 180l-255 181l50 70l354 -251zM394 202l-50 70l254 180l-254 181l50 70l353 -251z" />
    <glyph glyph-name="questiondown" unicode="&#xbf;" 
d="M157 792v117h86v-117h-86zM154 0q-52 0 -88 37.5t-36 90.5v12q0 191 86 358q29 57 35 87t5 95q0 6 -0.5 20.5t-0.5 23.5h86q0 -8 0.5 -22.5t0.5 -20.5q1 -72 -7 -112.5t-43 -109.5q-76 -150 -76 -319v-12q0 -17 11 -29.5t27 -12.5t27 12.5t11 29.5v109h86v-109
q0 -53 -36 -90.5t-88 -37.5z" />
    <glyph glyph-name="Agrave" unicode="&#xc0;" horiz-adv-x="332" 
d="M154 950l-100 100h105l64 -100h-69zM10 0l112 903h87l113 -903h-87l-24 196h-91l-25 -196h-85zM131 282h69l-34 273z" />
    <glyph glyph-name="Aacute" unicode="&#xc1;" horiz-adv-x="332" 
d="M108 950l64 100h105l-101 -100h-68zM10 0l112 903h87l113 -903h-87l-24 196h-91l-25 -196h-85zM131 282h69l-34 273z" />
    <glyph glyph-name="Acircumflex" unicode="&#xc2;" horiz-adv-x="332" 
d="M46 950l78 100h85l78 -100h-77l-44 56l-43 -56h-77zM10 0l112 903h87l113 -903h-87l-24 196h-91l-25 -196h-85zM131 282h69l-34 273z" />
    <glyph glyph-name="Atilde" unicode="&#xc3;" horiz-adv-x="332" 
d="M30 938q8 36 19 52q21 31 63 31q12 0 18 -2q9 -1 14 -4l32 -12l18 -6q3 -1 10 -1q16 0 22 8q8 11 10 20h44q-6 -34 -24 -58t-52 -24q-9 0 -29 5l-21 6l-27 9q-6 3 -11 3q-4 1 -11 1q-13 0 -20 -7q-9 -7 -12 -21h-43zM10 0l112 903h87l113 -903h-87l-24 196h-91l-25 -196
h-85zM131 282h69l-34 273z" />
    <glyph glyph-name="Adieresis" unicode="&#xc4;" horiz-adv-x="332" 
d="M54 950v79h86v-79h-86zM187 950v79h87v-79h-87zM10 0l112 903h87l113 -903h-87l-24 196h-91l-25 -196h-85zM131 282h69l-34 273z" />
    <glyph glyph-name="Aring" unicode="&#xc5;" horiz-adv-x="332" 
d="M165 950q-30 0 -51 21t-21 51t21 52q21 21 51 21q29 0 52 -21q21 -22 21 -52t-21 -51q-23 -21 -52 -21zM165 983q16 0 28 12q11 11 11 28t-11 27q-12 12 -28 12t-28 -12q-11 -10 -11 -27t11 -28q12 -12 28 -12zM10 0l112 903h87l113 -903h-87l-24 196h-91l-25 -196h-85z
M131 282h69l-34 273z" />
    <glyph glyph-name="AE" unicode="&#xc6;" horiz-adv-x="477" 
d="M10 0l112 903h87l26 -208v207h222v-86h-136v-321h107v-86h-107v-322h136v-86h-135v-1h-87l-24 196h-91l-25 -196h-85zM131 282h69l-34 273z" />
    <glyph glyph-name="Ccedilla" unicode="&#xc7;" horiz-adv-x="298" 
d="M278 651h-86v139q0 17 -11 29.5t-27 12.5t-27 -12.5t-11 -29.5v-677q0 -17 11 -29.5t27 -12.5t27 12.5t11 29.5v135h86v-135q0 -40 -22 -72.5t-57 -46.5l-28 -41q4 1 10 2t7 1q4 1 11 1q29 0 46 -14q18 -15 18 -41q0 -32 -27 -52q-28 -20 -70 -20q-17 0 -44 8
q-12 3 -33 12l13 30q16 -5 28 -7q20 -5 28 -5q22 0 31 9q10 10 10 20q0 15 -11 21q-10 6 -22 6q-4 0 -14 -2t-16 -4l-47 42l49 26q-46 6 -77 42.5t-31 84.5v677q0 53 36 90.5t88 37.5t88 -37.5t36 -90.5v-139z" />
    <glyph glyph-name="Egrave" unicode="&#xc8;" horiz-adv-x="272" 
d="M128 950l-100 100h105l64 -100h-69zM30 1v901h222v-86h-136v-321h107v-86h-107v-322h136v-86h-222z" />
    <glyph glyph-name="Eacute" unicode="&#xc9;" horiz-adv-x="272" 
d="M108 950l64 100h105l-101 -100h-68zM30 1v901h222v-86h-136v-321h107v-86h-107v-322h136v-86h-222z" />
    <glyph glyph-name="Ecircumflex" unicode="&#xca;" horiz-adv-x="272" 
d="M30 950l78 100h85l78 -100h-77l-44 56l-43 -56h-77zM30 1v901h222v-86h-136v-321h107v-86h-107v-322h136v-86h-222z" />
    <glyph glyph-name="Edieresis" unicode="&#xcb;" horiz-adv-x="272" 
d="M41 950v79h86v-79h-86zM174 950v79h87v-79h-87zM30 1v901h222v-86h-136v-321h107v-86h-107v-322h136v-86h-222z" />
    <glyph glyph-name="Igrave" unicode="&#xcc;" horiz-adv-x="166" 
d="M98 950l-100 100h105l64 -100h-69zM40 0v903h86v-903h-86z" />
    <glyph glyph-name="Iacute" unicode="&#xcd;" horiz-adv-x="166" 
d="M41 950l64 100h105l-101 -100h-68zM40 0v903h86v-903h-86z" />
    <glyph glyph-name="Icircumflex" unicode="&#xce;" horiz-adv-x="166" 
d="M-36 950l78 100h85l78 -100h-77l-44 56l-43 -56h-77zM40 0v903h86v-903h-86z" />
    <glyph glyph-name="Idieresis" unicode="&#xcf;" horiz-adv-x="166" 
d="M-28 950v79h86v-79h-86zM105 950v79h87v-79h-87zM40 0v903h86v-903h-86z" />
    <glyph glyph-name="Eth" unicode="&#xd0;" 
d="M130 902q62 0 105 -43t43 -105v-604q0 -62 -43.5 -105.5t-104.5 -43.5h-100v408h-29v86h29v407h100zM192 150v604q0 26 -18 44t-44 18h-14v-321h60v-86h-60v-321h14q26 0 44 18t18 44z" />
    <glyph glyph-name="Ntilde" unicode="&#xd1;" horiz-adv-x="350" 
d="M53 938q8 36 19 52q21 31 63 31q12 0 18 -2q9 -1 14 -4l32 -12l18 -6q3 -1 10 -1q16 0 22 8q7 11 10 20h44q-6 -34 -24 -58t-52 -24q-9 0 -29 5l-21 6l-27 9q-6 3 -11 3q-4 1 -11 1q-13 0 -20 -7q-9 -7 -12 -21h-43zM30 0v903h86l118 -519v519h86v-903h-87l-117 515v-515
h-86z" />
    <glyph glyph-name="Ograve" unicode="&#xd2;" 
d="M128 950l-100 100h105l64 -100h-69zM154 -17q-52 0 -88 37.5t-36 90.5v677q0 53 36 90.5t88 37.5t88 -37.5t36 -90.5v-677q0 -53 -36 -90.5t-88 -37.5zM154 69q16 0 27 12.5t11 29.5v677q0 17 -11 29.5t-27 12.5t-27 -12.5t-11 -29.5v-677q0 -17 11 -29.5t27 -12.5z" />
    <glyph glyph-name="Oacute" unicode="&#xd3;" 
d="M108 950l64 100h105l-101 -100h-68zM154 -17q-52 0 -88 37.5t-36 90.5v677q0 53 36 90.5t88 37.5t88 -37.5t36 -90.5v-677q0 -53 -36 -90.5t-88 -37.5zM154 69q16 0 27 12.5t11 29.5v677q0 17 -11 29.5t-27 12.5t-27 -12.5t-11 -29.5v-677q0 -17 11 -29.5t27 -12.5z" />
    <glyph glyph-name="Ocircumflex" unicode="&#xd4;" 
d="M30 950l78 100h85l78 -100h-77l-44 56l-43 -56h-77zM154 -17q-52 0 -88 37.5t-36 90.5v677q0 53 36 90.5t88 37.5t88 -37.5t36 -90.5v-677q0 -53 -36 -90.5t-88 -37.5zM154 69q16 0 27 12.5t11 29.5v677q0 17 -11 29.5t-27 12.5t-27 -12.5t-11 -29.5v-677q0 -17 11 -29.5
t27 -12.5z" />
    <glyph glyph-name="Otilde" unicode="&#xd5;" 
d="M30 938q8 36 19 52q21 31 63 31q12 0 18 -2q9 -1 14 -4l32 -12l18 -6q3 -1 10 -1q16 0 22 8q8 11 10 20h44q-6 -34 -24 -58t-52 -24q-9 0 -29 5l-21 6l-27 9q-6 3 -11 3q-4 1 -11 1q-13 0 -20 -7q-9 -7 -12 -21h-43zM154 -17q-52 0 -88 37.5t-36 90.5v677q0 53 36 90.5
t88 37.5t88 -37.5t36 -90.5v-677q0 -53 -36 -90.5t-88 -37.5zM154 69q16 0 27 12.5t11 29.5v677q0 17 -11 29.5t-27 12.5t-27 -12.5t-11 -29.5v-677q0 -17 11 -29.5t27 -12.5z" />
    <glyph glyph-name="Odieresis" unicode="&#xd6;" 
d="M41 950v79h86v-79h-86zM174 950v79h87v-79h-87zM154 -17q-52 0 -88 37.5t-36 90.5v677q0 53 36 90.5t88 37.5t88 -37.5t36 -90.5v-677q0 -53 -36 -90.5t-88 -37.5zM154 69q16 0 27 12.5t11 29.5v677q0 17 -11 29.5t-27 12.5t-27 -12.5t-11 -29.5v-677q0 -17 11 -29.5
t27 -12.5z" />
    <glyph glyph-name="multiply" unicode="&#xd7;" horiz-adv-x="384" 
d="M91 289l-61 61l101 102l-101 101l61 61l101 -101l102 101l60 -61l-101 -101l101 -102l-60 -61l-102 102z" />
    <glyph glyph-name="Oslash" unicode="&#xd8;" 
d="M357 900l-79 -217v-572q0 -53 -36 -90.5t-88 -37.5q-71 0 -108 65l-17 -48h-91l92 253v535q0 53 36 90.5t88 37.5q61 0 99 -50l12 34h92zM116 788v-298l76 209v89q0 17 -11 29.5t-27 12.5t-27 -12.5t-11 -29.5zM192 111v336l-76 -208v-128q0 -17 11 -29.5t27 -12.5
t27 12.5t11 29.5z" />
    <glyph glyph-name="Ugrave" unicode="&#xd9;" 
d="M128 950l-100 100h105l64 -100h-69zM154 -15q-52 0 -88 37.5t-36 90.5v790h86v-790q0 -17 11 -29.5t27 -12.5t27 12.5t11 29.5v790h86v-790q0 -53 -36 -90.5t-88 -37.5z" />
    <glyph glyph-name="Uacute" unicode="&#xda;" 
d="M108 950l64 100h105l-101 -100h-68zM154 -15q-52 0 -88 37.5t-36 90.5v790h86v-790q0 -17 11 -29.5t27 -12.5t27 12.5t11 29.5v790h86v-790q0 -53 -36 -90.5t-88 -37.5z" />
    <glyph glyph-name="Ucircumflex" unicode="&#xdb;" 
d="M30 950l78 100h85l78 -100h-77l-44 56l-43 -56h-77zM154 -15q-52 0 -88 37.5t-36 90.5v790h86v-790q0 -17 11 -29.5t27 -12.5t27 12.5t11 29.5v790h86v-790q0 -53 -36 -90.5t-88 -37.5z" />
    <glyph glyph-name="Udieresis" unicode="&#xdc;" 
d="M41 950v79h86v-79h-86zM174 950v79h87v-79h-87zM154 -15q-52 0 -88 37.5t-36 90.5v790h86v-790q0 -17 11 -29.5t27 -12.5t27 12.5t11 29.5v790h86v-790q0 -53 -36 -90.5t-88 -37.5z" />
    <glyph glyph-name="Yacute" unicode="&#xdd;" horiz-adv-x="283" 
d="M108 950l64 100h105l-101 -100h-68zM98 0v374l-88 529h87l44 -265l45 265h87l-89 -529v-374h-86z" />
    <glyph glyph-name="Thorn" unicode="&#xde;" horiz-adv-x="298" 
d="M30 0v1049h86v-147h21q58 0 99.5 -41.5t41.5 -100.5v-210q0 -58 -41 -99.5t-100 -41.5h-21v-409h-86zM116 495h21q23 0 39 16.5t16 38.5v210q0 23 -16 39.5t-39 16.5h-21v-321z" />
    <glyph glyph-name="germandbls" unicode="&#xdf;" horiz-adv-x="315" 
d="M30 -2v774q0 53 36 90.5t88 37.5t88 -37.5t36 -90.5v-224q0 -55 -37 -95q44 -42 44 -102v-210q0 -57 -40.5 -97.5t-97.5 -42.5v86q22 1 37 17t15 37v210q0 22 -15 38t-37 18v88q19 4 32 19t13 34v224q0 17 -11 29.5t-27 12.5t-27 -12.5t-11 -29.5v-774h-86z" />
    <glyph glyph-name="agrave" unicode="&#xe0;" horiz-adv-x="332" 
d="M159 950l-100 100h105l64 -100h-69zM10 0l112 903h87l113 -903h-87l-24 196h-91l-25 -196h-85zM131 282h69l-34 273z" />
    <glyph glyph-name="aacute" unicode="&#xe1;" horiz-adv-x="332" 
d="M108 950l64 100h105l-101 -100h-68zM10 0l112 903h87l113 -903h-87l-24 196h-91l-25 -196h-85zM131 282h69l-34 273z" />
    <glyph glyph-name="acircumflex" unicode="&#xe2;" horiz-adv-x="332" 
d="M47 950l78 100h85l78 -100h-77l-44 56l-43 -56h-77zM10 0l112 903h87l113 -903h-87l-24 196h-91l-25 -196h-85zM131 282h69l-34 273z" />
    <glyph glyph-name="atilde" unicode="&#xe3;" horiz-adv-x="332" 
d="M30 938q8 36 19 52q21 31 63 31q12 0 18 -2q9 -1 14 -4l32 -12l18 -6q3 -1 10 -1q16 0 22 8q8 11 10 20h44q-6 -34 -24 -58t-52 -24q-9 0 -29 5l-21 6l-27 9q-6 3 -11 3q-4 1 -11 1q-13 0 -20 -7q-9 -7 -12 -21h-43zM10 0l112 903h87l113 -903h-87l-24 196h-91l-25 -196
h-85zM131 282h69l-34 273z" />
    <glyph glyph-name="adieresis" unicode="&#xe4;" horiz-adv-x="332" 
d="M58 950v79h86v-79h-86zM191 950v79h87v-79h-87zM10 0l112 903h87l113 -903h-87l-24 196h-91l-25 -196h-85zM131 282h69l-34 273z" />
    <glyph glyph-name="aring" unicode="&#xe5;" horiz-adv-x="332" 
d="M210 898l112 -898h-87l-24 196h-91l-25 -196h-85l111 898q-2 1 -7 6q-21 21 -21 51t21 52q21 21 51 21q29 0 52 -21q21 -22 21 -52t-21 -51zM137 983q-11 -10 -11 -27t11 -28q12 -12 28 -12t28 12q11 11 11 28t-11 27q-12 12 -28 12t-28 -12zM131 282h69l-34 273z" />
    <glyph glyph-name="ae" unicode="&#xe6;" horiz-adv-x="477" 
d="M10 0l112 903h87l26 -208v207h222v-86h-136v-321h107v-86h-107v-322h136v-86h-135v-1h-87l-24 196h-91l-25 -196h-85zM131 282h69l-34 273z" />
    <glyph glyph-name="ccedilla" unicode="&#xe7;" horiz-adv-x="298" 
d="M278 651h-86v139q0 17 -11 29.5t-27 12.5t-27 -12.5t-11 -29.5v-677q0 -17 11 -29.5t27 -12.5t27 12.5t11 29.5v135h86v-135q0 -40 -22 -72.5t-57 -46.5l-28 -41q4 1 10 2t7 1q4 1 11 1q29 0 46 -14q18 -15 18 -41q0 -32 -27 -52q-28 -20 -70 -20q-17 0 -44 8
q-12 3 -33 12l13 30q16 -5 28 -7q20 -5 28 -5q22 0 31 9q10 10 10 20q0 15 -11 21q-10 6 -22 6q-4 0 -14 -2t-16 -4l-47 42l49 26q-46 6 -77 42.5t-31 84.5v677q0 53 36 90.5t88 37.5t88 -37.5t36 -90.5v-139z" />
    <glyph glyph-name="egrave" unicode="&#xe8;" horiz-adv-x="272" 
d="M128 950l-100 100h105l64 -100h-69zM30 1v901h222v-86h-136v-321h107v-86h-107v-322h136v-86h-222z" />
    <glyph glyph-name="eacute" unicode="&#xe9;" horiz-adv-x="272" 
d="M108 950l64 100h105l-101 -100h-68zM30 1v901h222v-86h-136v-321h107v-86h-107v-322h136v-86h-222z" />
    <glyph glyph-name="ecircumflex" unicode="&#xea;" horiz-adv-x="272" 
d="M30 950l78 100h85l78 -100h-77l-44 56l-43 -56h-77zM30 1v901h222v-86h-136v-321h107v-86h-107v-322h136v-86h-222z" />
    <glyph glyph-name="edieresis" unicode="&#xeb;" horiz-adv-x="272" 
d="M41 950v79h86v-79h-86zM174 950v79h87v-79h-87zM30 1v901h222v-86h-136v-321h107v-86h-107v-322h136v-86h-222z" />
    <glyph glyph-name="igrave" unicode="&#xec;" horiz-adv-x="166" 
d="M98 950l-100 100h105l64 -100h-69zM40 0v903h86v-903h-86z" />
    <glyph glyph-name="iacute" unicode="&#xed;" horiz-adv-x="166" 
d="M41 950l64 100h105l-101 -100h-68zM40 0v903h86v-903h-86z" />
    <glyph glyph-name="icircumflex" unicode="&#xee;" horiz-adv-x="166" 
d="M-36 950l78 100h85l78 -100h-77l-44 56l-43 -56h-77zM40 0v903h86v-903h-86z" />
    <glyph glyph-name="idieresis" unicode="&#xef;" horiz-adv-x="166" 
d="M-28 950v79h86v-79h-86zM105 950v79h87v-79h-87zM40 0v903h86v-903h-86z" />
    <glyph glyph-name="eth" unicode="&#xf0;" 
d="M130 902q62 0 105 -43t43 -105v-604q0 -62 -43.5 -105.5t-104.5 -43.5h-100v408h-29v86h29v407h100zM192 150v604q0 26 -18 44t-44 18h-14v-321h60v-86h-60v-321h14q26 0 44 18t18 44z" />
    <glyph glyph-name="ntilde" unicode="&#xf1;" horiz-adv-x="350" 
d="M53 938q8 36 19 52q21 31 63 31q12 0 18 -2q9 -1 14 -4l32 -12l18 -6q3 -1 10 -1q16 0 22 8q7 11 10 20h44q-6 -34 -24 -58t-52 -24q-9 0 -29 5l-21 6l-27 9q-6 3 -11 3q-4 1 -11 1q-13 0 -20 -7q-9 -7 -12 -21h-43zM30 0v903h86l118 -519v519h86v-903h-87l-117 515v-515
h-86z" />
    <glyph glyph-name="ograve" unicode="&#xf2;" 
d="M128 950l-100 100h105l64 -100h-69zM154 -17q-52 0 -88 37.5t-36 90.5v677q0 53 36 90.5t88 37.5t88 -37.5t36 -90.5v-677q0 -53 -36 -90.5t-88 -37.5zM154 69q16 0 27 12.5t11 29.5v677q0 17 -11 29.5t-27 12.5t-27 -12.5t-11 -29.5v-677q0 -17 11 -29.5t27 -12.5z" />
    <glyph glyph-name="oacute" unicode="&#xf3;" 
d="M108 950l64 100h105l-101 -100h-68zM154 -17q-52 0 -88 37.5t-36 90.5v677q0 53 36 90.5t88 37.5t88 -37.5t36 -90.5v-677q0 -53 -36 -90.5t-88 -37.5zM154 69q16 0 27 12.5t11 29.5v677q0 17 -11 29.5t-27 12.5t-27 -12.5t-11 -29.5v-677q0 -17 11 -29.5t27 -12.5z" />
    <glyph glyph-name="ocircumflex" unicode="&#xf4;" 
d="M30 950l78 100h85l78 -100h-77l-44 56l-43 -56h-77zM154 -17q-52 0 -88 37.5t-36 90.5v677q0 53 36 90.5t88 37.5t88 -37.5t36 -90.5v-677q0 -53 -36 -90.5t-88 -37.5zM154 69q16 0 27 12.5t11 29.5v677q0 17 -11 29.5t-27 12.5t-27 -12.5t-11 -29.5v-677q0 -17 11 -29.5
t27 -12.5z" />
    <glyph glyph-name="otilde" unicode="&#xf5;" 
d="M30 938q8 36 19 52q21 31 63 31q12 0 18 -2q9 -1 14 -4l32 -12l18 -6q3 -1 10 -1q16 0 22 8q8 11 10 20h44q-6 -34 -24 -58t-52 -24q-9 0 -29 5l-21 6l-27 9q-6 3 -11 3q-4 1 -11 1q-13 0 -20 -7q-9 -7 -12 -21h-43zM154 -17q-52 0 -88 37.5t-36 90.5v677q0 53 36 90.5
t88 37.5t88 -37.5t36 -90.5v-677q0 -53 -36 -90.5t-88 -37.5zM154 69q16 0 27 12.5t11 29.5v677q0 17 -11 29.5t-27 12.5t-27 -12.5t-11 -29.5v-677q0 -17 11 -29.5t27 -12.5z" />
    <glyph glyph-name="odieresis" unicode="&#xf6;" 
d="M41 950v79h86v-79h-86zM174 950v79h87v-79h-87zM154 -17q-52 0 -88 37.5t-36 90.5v677q0 53 36 90.5t88 37.5t88 -37.5t36 -90.5v-677q0 -53 -36 -90.5t-88 -37.5zM154 69q16 0 27 12.5t11 29.5v677q0 17 -11 29.5t-27 12.5t-27 -12.5t-11 -29.5v-677q0 -17 11 -29.5
t27 -12.5z" />
    <glyph glyph-name="divide" unicode="&#xf7;" horiz-adv-x="372" 
d="M142 542v87h87v-87h-87zM30 409v86h312v-86h-312zM142 281v87h87v-87h-87z" />
    <glyph glyph-name="oslash" unicode="&#xf8;" 
d="M357 900l-79 -217v-572q0 -53 -36 -90.5t-88 -37.5q-71 0 -108 65l-17 -48h-91l92 253v535q0 53 36 90.5t88 37.5q61 0 99 -50l12 34h92zM116 788v-298l76 209v89q0 17 -11 29.5t-27 12.5t-27 -12.5t-11 -29.5zM192 111v336l-76 -208v-128q0 -17 11 -29.5t27 -12.5
t27 12.5t11 29.5z" />
    <glyph glyph-name="ugrave" unicode="&#xf9;" 
d="M128 950l-100 100h105l64 -100h-69zM154 -15q-52 0 -88 37.5t-36 90.5v790h86v-790q0 -17 11 -29.5t27 -12.5t27 12.5t11 29.5v790h86v-790q0 -53 -36 -90.5t-88 -37.5z" />
    <glyph glyph-name="uacute" unicode="&#xfa;" 
d="M108 950l64 100h105l-101 -100h-68zM154 -15q-52 0 -88 37.5t-36 90.5v790h86v-790q0 -17 11 -29.5t27 -12.5t27 12.5t11 29.5v790h86v-790q0 -53 -36 -90.5t-88 -37.5z" />
    <glyph glyph-name="ucircumflex" unicode="&#xfb;" 
d="M30 950l78 100h85l78 -100h-77l-44 56l-43 -56h-77zM154 -15q-52 0 -88 37.5t-36 90.5v790h86v-790q0 -17 11 -29.5t27 -12.5t27 12.5t11 29.5v790h86v-790q0 -53 -36 -90.5t-88 -37.5z" />
    <glyph glyph-name="udieresis" unicode="&#xfc;" 
d="M41 950v79h86v-79h-86zM174 950v79h87v-79h-87zM154 -15q-52 0 -88 37.5t-36 90.5v790h86v-790q0 -17 11 -29.5t27 -12.5t27 12.5t11 29.5v790h86v-790q0 -53 -36 -90.5t-88 -37.5z" />
    <glyph glyph-name="yacute" unicode="&#xfd;" horiz-adv-x="283" 
d="M108 950l64 100h105l-101 -100h-68zM98 0v374l-88 529h87l44 -265l45 265h87l-89 -529v-374h-86z" />
    <glyph glyph-name="thorn" unicode="&#xfe;" horiz-adv-x="298" 
d="M30 0v1049h86v-147h21q58 0 99.5 -41.5t41.5 -100.5v-210q0 -58 -41 -99.5t-100 -41.5h-21v-409h-86zM116 495h21q23 0 39 16.5t16 38.5v210q0 23 -16 39.5t-39 16.5h-21v-321z" />
    <glyph glyph-name="ydieresis" unicode="&#xff;" horiz-adv-x="283" 
d="M30 950v79h86v-79h-86zM163 950v79h87v-79h-87zM98 0v374l-88 529h87l44 -265l45 265h87l-89 -529v-374h-86z" />
    <glyph glyph-name="Amacron" unicode="&#x100;" horiz-adv-x="332" 
d="M45 950v50h236v-50h-236zM10 0l112 903h87l113 -903h-87l-24 196h-91l-25 -196h-85zM131 282h69l-34 273z" />
    <glyph glyph-name="amacron" unicode="&#x101;" horiz-adv-x="332" 
d="M49 950v50h236v-50h-236zM10 0l112 903h87l113 -903h-87l-24 196h-91l-25 -196h-85zM131 282h69l-34 273z" />
    <glyph glyph-name="Abreve" unicode="&#x102;" horiz-adv-x="332" 
d="M168 951q-52 0 -80 24q-30 24 -34 76h45q5 -32 32 -42q15 -6 37 -6q23 0 38 6q27 10 32 42h45q-4 -52 -34 -76q-29 -24 -81 -24zM10 0l112 903h87l113 -903h-87l-24 196h-91l-25 -196h-85zM131 282h69l-34 273z" />
    <glyph glyph-name="abreve" unicode="&#x103;" horiz-adv-x="332" 
d="M168 951q-52 0 -80 24q-30 24 -34 76h45q5 -32 32 -42q15 -6 37 -6q23 0 38 6q27 10 32 42h45q-4 -52 -34 -76q-29 -24 -81 -24zM10 0l112 903h87l113 -903h-87l-24 196h-91l-25 -196h-85zM131 282h69l-34 273z" />
    <glyph glyph-name="Aogonek" unicode="&#x104;" horiz-adv-x="332" 
d="M310 -107q9 2 19 6v-52q-15 -6 -27 -9q-20 -5 -43 -5q-37 0 -62 22q-24 21 -24 50q0 33 30 60q14 13 52 35h-20l-24 196h-91l-25 -196h-85l112 903h87l113 -900h2l-2 -2v-1h-2l-20 -14q-20 -15 -36 -31q-12 -13 -12 -29q0 -17 12 -26t29 -9q11 0 17 2zM131 282h69
l-34 273z" />
    <glyph glyph-name="aogonek" unicode="&#x105;" horiz-adv-x="332" 
d="M310 -107q9 2 19 6v-52q-15 -6 -27 -9q-20 -5 -43 -5q-37 0 -62 22q-24 21 -24 50q0 33 30 60q14 13 52 35h-20l-24 196h-91l-25 -196h-85l112 903h87l113 -900h2l-2 -2v-1h-2l-20 -14q-20 -15 -36 -31q-12 -13 -12 -29q0 -17 12 -26t29 -9q11 0 17 2zM131 282h69
l-34 273z" />
    <glyph glyph-name="Cacute" unicode="&#x106;" horiz-adv-x="298" 
d="M108 950l64 100h105l-101 -100h-68zM154 -15q-52 0 -88 37.5t-36 90.5v677q0 53 36 90.5t88 37.5t88 -37.5t36 -90.5v-139h-86v139q0 17 -11 29.5t-27 12.5t-27 -12.5t-11 -29.5v-677q0 -17 11 -29.5t27 -12.5t27 12.5t11 29.5v135h86v-135q0 -53 -36 -90.5t-88 -37.5z
" />
    <glyph glyph-name="cacute" unicode="&#x107;" horiz-adv-x="298" 
d="M108 950l64 100h105l-101 -100h-68zM154 -15q-52 0 -88 37.5t-36 90.5v677q0 53 36 90.5t88 37.5t88 -37.5t36 -90.5v-139h-86v139q0 17 -11 29.5t-27 12.5t-27 -12.5t-11 -29.5v-677q0 -17 11 -29.5t27 -12.5t27 12.5t11 29.5v135h86v-135q0 -53 -36 -90.5t-88 -37.5z
" />
    <glyph glyph-name="Cdotaccent" unicode="&#x10a;" horiz-adv-x="298" 
d="M109 950v79h86v-79h-86zM154 -15q-52 0 -88 37.5t-36 90.5v677q0 53 36 90.5t88 37.5t88 -37.5t36 -90.5v-139h-86v139q0 17 -11 29.5t-27 12.5t-27 -12.5t-11 -29.5v-677q0 -17 11 -29.5t27 -12.5t27 12.5t11 29.5v135h86v-135q0 -53 -36 -90.5t-88 -37.5z" />
    <glyph glyph-name="cdotaccent" unicode="&#x10b;" horiz-adv-x="298" 
d="M109 950v79h86v-79h-86zM154 -15q-52 0 -88 37.5t-36 90.5v677q0 53 36 90.5t88 37.5t88 -37.5t36 -90.5v-139h-86v139q0 17 -11 29.5t-27 12.5t-27 -12.5t-11 -29.5v-677q0 -17 11 -29.5t27 -12.5t27 12.5t11 29.5v135h86v-135q0 -53 -36 -90.5t-88 -37.5z" />
    <glyph glyph-name="Ccaron" unicode="&#x10c;" horiz-adv-x="298" 
d="M108 950l-78 100h77l43 -57l44 57h77l-78 -100h-85zM154 -15q-52 0 -88 37.5t-36 90.5v677q0 53 36 90.5t88 37.5t88 -37.5t36 -90.5v-139h-86v139q0 17 -11 29.5t-27 12.5t-27 -12.5t-11 -29.5v-677q0 -17 11 -29.5t27 -12.5t27 12.5t11 29.5v135h86v-135
q0 -53 -36 -90.5t-88 -37.5z" />
    <glyph glyph-name="ccaron" unicode="&#x10d;" horiz-adv-x="298" 
d="M108 950l-78 100h77l43 -57l44 57h77l-78 -100h-85zM154 -15q-52 0 -88 37.5t-36 90.5v677q0 53 36 90.5t88 37.5t88 -37.5t36 -90.5v-139h-86v139q0 17 -11 29.5t-27 12.5t-27 -12.5t-11 -29.5v-677q0 -17 11 -29.5t27 -12.5t27 12.5t11 29.5v135h86v-135
q0 -53 -36 -90.5t-88 -37.5z" />
    <glyph glyph-name="Dcaron" unicode="&#x10e;" 
d="M108 950l-78 100h77l43 -57l44 57h77l-78 -100h-85zM30 1v901h100q62 0 105 -43t43 -105v-604q0 -62 -43.5 -105.5t-104.5 -43.5h-100zM116 88h14q26 0 44 18t18 44v604q0 26 -18 44t-44 18h-14v-728z" />
    <glyph glyph-name="dcaron" unicode="&#x10f;" 
d="M108 950l-78 100h77l43 -57l44 57h77l-78 -100h-85zM30 1v901h100q62 0 105 -43t43 -105v-604q0 -62 -43.5 -105.5t-104.5 -43.5h-100zM116 88h14q26 0 44 18t18 44v604q0 26 -18 44t-44 18h-14v-728z" />
    <glyph glyph-name="Dcroat" unicode="&#x110;" 
d="M130 902q62 0 105 -43t43 -105v-604q0 -62 -43.5 -105.5t-104.5 -43.5h-100v408h-29v86h29v407h100zM192 150v604q0 26 -18 44t-44 18h-14v-321h60v-86h-60v-321h14q26 0 44 18t18 44z" />
    <glyph glyph-name="dcroat" unicode="&#x111;" 
d="M130 902q62 0 105 -43t43 -105v-604q0 -62 -43.5 -105.5t-104.5 -43.5h-100v408h-29v86h29v407h100zM192 150v604q0 26 -18 44t-44 18h-14v-321h60v-86h-60v-321h14q26 0 44 18t18 44z" />
    <glyph glyph-name="Emacron" unicode="&#x112;" horiz-adv-x="272" 
d="M30 950v50h236v-50h-236zM30 1v901h222v-86h-136v-321h107v-86h-107v-322h136v-86h-222z" />
    <glyph glyph-name="emacron" unicode="&#x113;" horiz-adv-x="272" 
d="M30 950v50h236v-50h-236zM30 1v901h222v-86h-136v-321h107v-86h-107v-322h136v-86h-222z" />
    <glyph glyph-name="Edotaccent" unicode="&#x116;" horiz-adv-x="272" 
d="M109 950v79h86v-79h-86zM30 1v901h222v-86h-136v-321h107v-86h-107v-322h136v-86h-222z" />
    <glyph glyph-name="edotaccent" unicode="&#x117;" horiz-adv-x="272" 
d="M109 950v79h86v-79h-86zM30 1v901h222v-86h-136v-321h107v-86h-107v-322h136v-86h-222z" />
    <glyph glyph-name="Eogonek" unicode="&#x118;" horiz-adv-x="272" 
d="M238 -106q9 2 19 6v-52q-15 -6 -27 -9q-20 -5 -43 -5q-37 0 -62 22q-24 21 -24 50q0 33 30 60q14 13 52 35h-153v901h222v-86h-136v-321h107v-86h-107v-322h136v-86h-4l-20 -14q-20 -15 -36 -31q-12 -14 -12 -29q0 -17 12 -26t29 -9q11 0 17 2z" />
    <glyph glyph-name="eogonek" unicode="&#x119;" horiz-adv-x="272" 
d="M238 -107q9 2 19 6v-52q-15 -6 -27 -9q-20 -5 -43 -5q-37 0 -62 22q-24 21 -24 50q0 33 30 60q13 13 54 36h-155v901h222v-86h-136v-321h107v-86h-107v-322h136v-86h-3l-21 -15q-20 -15 -36 -31q-12 -13 -12 -29q0 -17 12 -26t29 -9q11 0 17 2z" />
    <glyph glyph-name="Ecaron" unicode="&#x11a;" horiz-adv-x="272" 
d="M108 950l-78 100h77l43 -57l44 57h77l-78 -100h-85zM30 1v901h222v-86h-136v-321h107v-86h-107v-322h136v-86h-222z" />
    <glyph glyph-name="ecaron" unicode="&#x11b;" horiz-adv-x="272" 
d="M108 950l-78 100h77l43 -57l44 57h77l-78 -100h-85zM30 1v901h222v-86h-136v-321h107v-86h-107v-322h136v-86h-222z" />
    <glyph glyph-name="Gbreve" unicode="&#x11e;" 
d="M168 951q-52 0 -80 24q-30 24 -34 76h45q5 -32 32 -42q15 -6 37 -6q23 0 38 6q27 10 32 42h45q-4 -52 -34 -76q-29 -24 -81 -24zM154 -15q-52 0 -88 37.5t-36 90.5v677q0 53 36 90.5t88 37.5t88 -37.5t36 -90.5v-139h-86v139q0 17 -11 29.5t-27 12.5t-27 -12.5t-11 -29.5
v-677q0 -17 11 -29.5t27 -12.5t27 12.5t11 29.5v222h-53v86h139v-308q0 -53 -36 -90.5t-88 -37.5z" />
    <glyph glyph-name="gbreve" unicode="&#x11f;" 
d="M168 951q-52 0 -80 24q-30 24 -34 76h45q5 -32 32 -42q15 -6 37 -6q23 0 38 6q27 10 32 42h45q-4 -52 -34 -76q-29 -24 -81 -24zM154 -15q-52 0 -88 37.5t-36 90.5v677q0 53 36 90.5t88 37.5t88 -37.5t36 -90.5v-139h-86v139q0 17 -11 29.5t-27 12.5t-27 -12.5t-11 -29.5
v-677q0 -17 11 -29.5t27 -12.5t27 12.5t11 29.5v222h-53v86h139v-308q0 -53 -36 -90.5t-88 -37.5z" />
    <glyph glyph-name="Gdotaccent" unicode="&#x120;" 
d="M109 950v79h86v-79h-86zM154 -15q-52 0 -88 37.5t-36 90.5v677q0 53 36 90.5t88 37.5t88 -37.5t36 -90.5v-139h-86v139q0 17 -11 29.5t-27 12.5t-27 -12.5t-11 -29.5v-677q0 -17 11 -29.5t27 -12.5t27 12.5t11 29.5v222h-53v86h139v-308q0 -53 -36 -90.5t-88 -37.5z" />
    <glyph glyph-name="gdotaccent" unicode="&#x121;" 
d="M109 950v79h86v-79h-86zM154 -15q-52 0 -88 37.5t-36 90.5v677q0 53 36 90.5t88 37.5t88 -37.5t36 -90.5v-139h-86v139q0 17 -11 29.5t-27 12.5t-27 -12.5t-11 -29.5v-677q0 -17 11 -29.5t27 -12.5t27 12.5t11 29.5v222h-53v86h139v-308q0 -53 -36 -90.5t-88 -37.5z" />
    <glyph glyph-name="Gcommaaccent" unicode="&#x122;" 
d="M154 -15q-52 0 -88 37.5t-36 90.5v677q0 53 36 90.5t88 37.5t88 -37.5t36 -90.5v-139h-86v139q0 17 -11 29.5t-27 12.5t-27 -12.5t-11 -29.5v-677q0 -17 11 -29.5t27 -12.5t27 12.5t11 29.5v222h-53v86h139v-308q0 -53 -36 -90.5t-88 -37.5zM30 -128l64 100h105
l-101 -100h-68z" />
    <glyph glyph-name="gcommaaccent" unicode="&#x123;" 
d="M124 962v73q0 23 5 41q4 20 19 36l27 -20q-12 -18 -13 -45h49v-85h-87zM154 -15q-52 0 -88 37.5t-36 90.5v677q0 53 36 90.5t88 37.5t88 -37.5t36 -90.5v-139h-86v139q0 17 -11 29.5t-27 12.5t-27 -12.5t-11 -29.5v-677q0 -17 11 -29.5t27 -12.5t27 12.5t11 29.5v222h-53
v86h139v-308q0 -53 -36 -90.5t-88 -37.5z" />
    <glyph glyph-name="Hbar" unicode="&#x126;" 
d="M192 903h86v-903h-86v407h-76v-407h-86v903h86v-271h76v271zM116 493h76v53h-76v-53z" />
    <glyph glyph-name="hbar" unicode="&#x127;" 
d="M192 903h86v-903h-86v407h-76v-407h-86v903h86v-271h76v271zM116 493h76v53h-76v-53z" />
    <glyph glyph-name="Imacron" unicode="&#x12a;" horiz-adv-x="166" 
d="M-35 950v50h236v-50h-236zM40 0v903h86v-903h-86z" />
    <glyph glyph-name="imacron" unicode="&#x12b;" horiz-adv-x="166" 
d="M-35 950v50h236v-50h-236zM40 0v903h86v-903h-86z" />
    <glyph glyph-name="Iogonek" unicode="&#x12e;" horiz-adv-x="166" 
d="M110 -108q9 2 19 6v-52q-15 -6 -27 -9q-20 -5 -43 -5q-37 0 -62 22q-24 21 -24 50q0 33 30 60q13 13 54 36h-17v903h86v-903h-5l-21 -15q-20 -15 -36 -31q-12 -13 -12 -29q0 -17 12 -26t29 -9q11 0 17 2z" />
    <glyph glyph-name="iogonek" unicode="&#x12f;" horiz-adv-x="166" 
d="M110 -108q9 2 19 6v-52q-15 -6 -27 -9q-20 -5 -43 -5q-37 0 -62 22q-24 21 -24 50q0 33 30 60q13 13 54 36h-17v903h86v-903h-5l-21 -15q-20 -15 -36 -31q-12 -13 -12 -29q0 -17 12 -26t29 -9q11 0 17 2z" />
    <glyph glyph-name="Idotaccent" unicode="&#x130;" horiz-adv-x="166" 
d="M40 950v79h86v-79h-86zM40 0v903h86v-903h-86z" />
    <glyph glyph-name="dotlessi" unicode="&#x131;" horiz-adv-x="166" 
d="M40 0v903h86v-903h-86z" />
    <glyph glyph-name="Kcommaaccent" unicode="&#x136;" horiz-adv-x="310" 
d="M30 0v903h86v-377l95 377h89l-110 -433l109 -470h-89l-94 410v-410h-86zM30 -128l64 100h105l-101 -100h-68z" />
    <glyph glyph-name="kcommaaccent" unicode="&#x137;" horiz-adv-x="310" 
d="M30 0v903h86v-377l95 377h89l-110 -433l109 -470h-89l-94 410v-410h-86zM30 -128l64 100h105l-101 -100h-68z" />
    <glyph glyph-name="Lacute" unicode="&#x139;" horiz-adv-x="272" 
d="M108 950l64 100h105l-101 -100h-68zM30 0v903h86v-817h136v-86h-222z" />
    <glyph glyph-name="lacute" unicode="&#x13a;" horiz-adv-x="272" 
d="M108 950l64 100h105l-101 -100h-68zM30 0v903h86v-817h136v-86h-222z" />
    <glyph glyph-name="Lcommaaccent" unicode="&#x13b;" horiz-adv-x="272" 
d="M30 0v903h86v-817h136v-86h-222zM30 -128l64 100h105l-101 -100h-68z" />
    <glyph glyph-name="lcommaaccent" unicode="&#x13c;" horiz-adv-x="272" 
d="M30 0v903h86v-817h136v-86h-222zM30 -128l64 100h105l-101 -100h-68z" />
    <glyph glyph-name="Lcaron" unicode="&#x13d;" horiz-adv-x="272" 
d="M108 950l-78 100h77l43 -57l44 57h77l-78 -100h-85zM30 0v903h86v-817h136v-86h-222z" />
    <glyph glyph-name="lcaron" unicode="&#x13e;" horiz-adv-x="272" 
d="M108 950l-78 100h77l43 -57l44 57h77l-78 -100h-85zM30 0v903h86v-817h136v-86h-222z" />
    <glyph glyph-name="Lslash" unicode="&#x141;" horiz-adv-x="272" 
d="M116 189v-103h136v-86h-222v1h-47l47 212v690h86v-302l67 302h92z" />
    <glyph glyph-name="lslash" unicode="&#x142;" horiz-adv-x="272" 
d="M116 189v-103h136v-86h-222v1h-47l47 212v690h86v-302l67 302h92z" />
    <glyph glyph-name="Nacute" unicode="&#x143;" horiz-adv-x="350" 
d="M108 950l64 100h105l-101 -100h-68zM30 0v903h86l118 -519v519h86v-903h-87l-117 515v-515h-86z" />
    <glyph glyph-name="nacute" unicode="&#x144;" horiz-adv-x="350" 
d="M108 950l64 100h105l-101 -100h-68zM30 0v903h86l118 -519v519h86v-903h-87l-117 515v-515h-86z" />
    <glyph glyph-name="Ncommaaccent" unicode="&#x145;" horiz-adv-x="350" 
d="M30 0v903h86l118 -519v519h86v-903h-87l-117 515v-515h-86zM67 -128l64 100h105l-101 -100h-68z" />
    <glyph glyph-name="ncommaaccent" unicode="&#x146;" horiz-adv-x="350" 
d="M30 0v903h86l118 -519v519h86v-903h-87l-117 515v-515h-86zM67 -128l64 100h105l-101 -100h-68z" />
    <glyph glyph-name="Ncaron" unicode="&#x147;" horiz-adv-x="350" 
d="M128 950l-78 100h77l43 -57l44 57h77l-78 -100h-85zM30 0v903h86l118 -519v519h86v-903h-87l-117 515v-515h-86z" />
    <glyph glyph-name="ncaron" unicode="&#x148;" horiz-adv-x="350" 
d="M128 950l-78 100h77l43 -57l44 57h77l-78 -100h-85zM30 0v903h86l118 -519v519h86v-903h-87l-117 515v-515h-86z" />
    <glyph glyph-name="Eng" unicode="&#x14a;" horiz-adv-x="350" 
d="M202 -198q-49 0 -83.5 33t-34.5 80h90q0 -10 8.5 -16.5t19.5 -6.5q12 0 20 6.5t8 16.5l3 85l-117 515v-515h-86v903h86l118 -519v519h86v-988q0 -47 -34.5 -80t-83.5 -33z" />
    <glyph glyph-name="eng" unicode="&#x14b;" horiz-adv-x="350" 
d="M202 -198q-49 0 -83.5 33t-34.5 80h90q0 -10 8.5 -16.5t19.5 -6.5q12 0 20 6.5t8 16.5l3 85l-117 515v-515h-86v903h86l118 -519v519h86v-988q0 -47 -34.5 -80t-83.5 -33z" />
    <glyph glyph-name="Omacron" unicode="&#x14c;" 
d="M30 950v50h236v-50h-236zM154 -17q-52 0 -88 37.5t-36 90.5v677q0 53 36 90.5t88 37.5t88 -37.5t36 -90.5v-677q0 -53 -36 -90.5t-88 -37.5zM154 69q16 0 27 12.5t11 29.5v677q0 17 -11 29.5t-27 12.5t-27 -12.5t-11 -29.5v-677q0 -17 11 -29.5t27 -12.5z" />
    <glyph glyph-name="omacron" unicode="&#x14d;" 
d="M30 950v50h236v-50h-236zM154 -17q-52 0 -88 37.5t-36 90.5v677q0 53 36 90.5t88 37.5t88 -37.5t36 -90.5v-677q0 -53 -36 -90.5t-88 -37.5zM154 69q16 0 27 12.5t11 29.5v677q0 17 -11 29.5t-27 12.5t-27 -12.5t-11 -29.5v-677q0 -17 11 -29.5t27 -12.5z" />
    <glyph glyph-name="Ohungarumlaut" unicode="&#x150;" 
d="M44 950l49 97h97l-81 -97h-65zM190 950l49 97h97l-81 -97h-65zM154 -17q-52 0 -88 37.5t-36 90.5v677q0 53 36 90.5t88 37.5t88 -37.5t36 -90.5v-677q0 -53 -36 -90.5t-88 -37.5zM154 69q16 0 27 12.5t11 29.5v677q0 17 -11 29.5t-27 12.5t-27 -12.5t-11 -29.5v-677
q0 -17 11 -29.5t27 -12.5z" />
    <glyph glyph-name="ohungarumlaut" unicode="&#x151;" 
d="M44 950l49 97h97l-81 -97h-65zM190 950l49 97h97l-81 -97h-65zM154 -17q-52 0 -88 37.5t-36 90.5v677q0 53 36 90.5t88 37.5t88 -37.5t36 -90.5v-677q0 -53 -36 -90.5t-88 -37.5zM154 69q16 0 27 12.5t11 29.5v677q0 17 -11 29.5t-27 12.5t-27 -12.5t-11 -29.5v-677
q0 -17 11 -29.5t27 -12.5z" />
    <glyph glyph-name="OE" unicode="&#x152;" horiz-adv-x="435" 
d="M154 -16q-52 0 -88 37.5t-36 90.5v677q0 53 36 90.5t88 37.5q33 0 60 -16h201v-86h-136v-321h107v-86h-107v-322h136v-86h-201q-29 -16 -60 -16zM154 70q16 0 27 12.5t11 29.5v677q0 17 -11 29.5t-27 12.5t-27 -12.5t-11 -29.5v-677q0 -17 11 -29.5t27 -12.5z" />
    <glyph glyph-name="oe" unicode="&#x153;" horiz-adv-x="435" 
d="M154 -16q-52 0 -88 37.5t-36 90.5v677q0 53 36 90.5t88 37.5q33 0 60 -16h201v-86h-136v-321h107v-86h-107v-322h136v-86h-201q-29 -16 -60 -16zM154 70q16 0 27 12.5t11 29.5v677q0 17 -11 29.5t-27 12.5t-27 -12.5t-11 -29.5v-677q0 -17 11 -29.5t27 -12.5z" />
    <glyph glyph-name="Racute" unicode="&#x154;" horiz-adv-x="303" 
d="M108 950l64 100h105l-101 -100h-68zM30 0v903h109q59 0 101 -42t42 -101v-209q0 -70 -56 -113l57 -438h-91l-53 408h-19v-408h-90zM120 498h19q22 0 37.5 15.5t15.5 37.5v209q0 22 -15.5 37.5t-37.5 15.5h-19v-315z" />
    <glyph glyph-name="racute" unicode="&#x155;" horiz-adv-x="303" 
d="M108 950l64 100h105l-101 -100h-68zM30 0v903h109q59 0 101 -42t42 -101v-209q0 -70 -56 -113l57 -438h-91l-53 408h-19v-408h-90zM120 498h19q22 0 37.5 15.5t15.5 37.5v209q0 22 -15.5 37.5t-37.5 15.5h-19v-315z" />
    <glyph glyph-name="Rcommaaccent" unicode="&#x156;" horiz-adv-x="303" 
d="M30 0v903h109q59 0 101 -42t42 -101v-209q0 -70 -56 -113l57 -438h-91l-53 408h-19v-408h-90zM120 498h19q22 0 37.5 15.5t15.5 37.5v209q0 22 -15.5 37.5t-37.5 15.5h-19v-315zM30 -128l64 100h105l-101 -100h-68z" />
    <glyph glyph-name="rcommaaccent" unicode="&#x157;" horiz-adv-x="303" 
d="M30 0v903h109q59 0 101 -42t42 -101v-209q0 -70 -56 -113l57 -438h-91l-53 408h-19v-408h-90zM120 498h19q22 0 37.5 15.5t15.5 37.5v209q0 22 -15.5 37.5t-37.5 15.5h-19v-315zM30 -128l64 100h105l-101 -100h-68z" />
    <glyph glyph-name="Rcaron" unicode="&#x158;" horiz-adv-x="303" 
d="M108 950l-78 100h77l43 -57l44 57h77l-78 -100h-85zM30 0v903h109q59 0 101 -42t42 -101v-209q0 -70 -56 -113l57 -438h-91l-53 408h-19v-408h-90zM120 498h19q22 0 37.5 15.5t15.5 37.5v209q0 22 -15.5 37.5t-37.5 15.5h-19v-315z" />
    <glyph glyph-name="rcaron" unicode="&#x159;" horiz-adv-x="303" 
d="M108 950l-78 100h77l43 -57l44 57h77l-78 -100h-85zM30 0v903h109q59 0 101 -42t42 -101v-209q0 -70 -56 -113l57 -438h-91l-53 408h-19v-408h-90zM120 498h19q22 0 37.5 15.5t15.5 37.5v209q0 22 -15.5 37.5t-37.5 15.5h-19v-315z" />
    <glyph glyph-name="Sacute" unicode="&#x15a;" horiz-adv-x="288" 
d="M108 950l64 100h105l-101 -100h-68zM144 -15q-52 0 -88 37.5t-36 90.5v146h86v-146q0 -17 11 -29.5t27 -12.5t27 12.5t11 29.5v77q0 131 -52 248l-68 152q-42 94 -42 200q0 53 36 90.5t88 37.5t88 -37.5t36 -90.5v-119h-86v119q0 17 -11 29.5t-27 12.5t-27 -12.5
t-11 -29.5q0 -86 35 -165l68 -152q59 -136 59 -283v-77q0 -53 -36 -90.5t-88 -37.5z" />
    <glyph glyph-name="sacute" unicode="&#x15b;" horiz-adv-x="288" 
d="M108 950l64 100h105l-101 -100h-68zM144 -15q-52 0 -88 37.5t-36 90.5v146h86v-146q0 -17 11 -29.5t27 -12.5t27 12.5t11 29.5v77q0 131 -52 248l-68 152q-42 94 -42 200q0 53 36 90.5t88 37.5t88 -37.5t36 -90.5v-119h-86v119q0 17 -11 29.5t-27 12.5t-27 -12.5
t-11 -29.5q0 -86 35 -165l68 -152q59 -136 59 -283v-77q0 -53 -36 -90.5t-88 -37.5z" />
    <glyph glyph-name="Scedilla" unicode="&#x15e;" horiz-adv-x="288" 
d="M268 671h-86v119q0 17 -11 29.5t-27 12.5t-27 -12.5t-11 -29.5q0 -86 35 -165l68 -152q59 -136 59 -283v-77q0 -44 -26 -78.5t-66 -45.5l-25 -36q4 1 10 2t7 1q4 1 11 1q29 0 46 -14q18 -15 18 -41q0 -32 -27 -52q-28 -20 -70 -20q-17 0 -44 8q-12 3 -33 12l13 30
q16 -5 28 -7q20 -5 28 -5q22 0 31 9q10 10 10 20q0 15 -11 21q-10 6 -22 6q-4 0 -14 -2t-16 -4l-47 42l51 27q-43 9 -71.5 44.5t-28.5 81.5v146h86v-146q0 -17 11 -29.5t27 -12.5t27 12.5t11 29.5v77q0 131 -52 248l-68 152q-42 94 -42 200q0 53 36 90.5t88 37.5t88 -37.5
t36 -90.5v-119z" />
    <glyph glyph-name="scedilla" unicode="&#x15f;" horiz-adv-x="288" 
d="M268 671h-86v119q0 17 -11 29.5t-27 12.5t-27 -12.5t-11 -29.5q0 -86 35 -165l68 -152q59 -136 59 -283v-77q0 -44 -26 -78.5t-66 -45.5l-25 -36q4 1 10 2t7 1q4 1 11 1q29 0 46 -14q18 -15 18 -41q0 -32 -27 -52q-28 -20 -70 -20q-17 0 -44 8q-12 3 -33 12l13 30
q16 -5 28 -7q20 -5 28 -5q22 0 31 9q10 10 10 20q0 15 -11 21q-10 6 -22 6q-4 0 -14 -2t-16 -4l-47 42l51 27q-43 9 -71.5 44.5t-28.5 81.5v146h86v-146q0 -17 11 -29.5t27 -12.5t27 12.5t11 29.5v77q0 131 -52 248l-68 152q-42 94 -42 200q0 53 36 90.5t88 37.5t88 -37.5
t36 -90.5v-119z" />
    <glyph glyph-name="Scaron" unicode="&#x160;" horiz-adv-x="288" 
d="M108 950l-78 100h77l43 -57l44 57h77l-78 -100h-85zM144 -15q-52 0 -88 37.5t-36 90.5v146h86v-146q0 -17 11 -29.5t27 -12.5t27 12.5t11 29.5v77q0 131 -52 248l-68 152q-42 94 -42 200q0 53 36 90.5t88 37.5t88 -37.5t36 -90.5v-119h-86v119q0 17 -11 29.5t-27 12.5
t-27 -12.5t-11 -29.5q0 -86 35 -165l68 -152q59 -136 59 -283v-77q0 -53 -36 -90.5t-88 -37.5z" />
    <glyph glyph-name="scaron" unicode="&#x161;" horiz-adv-x="288" 
d="M108 950l-78 100h77l43 -57l44 57h77l-78 -100h-85zM144 -15q-52 0 -88 37.5t-36 90.5v146h86v-146q0 -17 11 -29.5t27 -12.5t27 12.5t11 29.5v77q0 131 -52 248l-68 152q-42 94 -42 200q0 53 36 90.5t88 37.5t88 -37.5t36 -90.5v-119h-86v119q0 17 -11 29.5t-27 12.5
t-27 -12.5t-11 -29.5q0 -86 35 -165l68 -152q59 -136 59 -283v-77q0 -53 -36 -90.5t-88 -37.5z" />
    <glyph glyph-name="uni0162" unicode="&#x162;" horiz-adv-x="312" 
d="M199 0h-20l-32 -47q4 1 10 2t7 1q4 1 11 1q29 0 46 -14q18 -15 18 -41q0 -32 -27 -52q-28 -20 -70 -20q-17 0 -44 8q-12 3 -33 12l13 30q16 -5 28 -7q20 -5 28 -5q22 0 31 9q10 10 10 20q0 15 -11 21q-10 6 -22 6q-4 0 -14 -2t-16 -4l-47 42l75 40h-27v817h-103v86h292
v-86h-103v-817z" />
    <glyph glyph-name="uni0163" unicode="&#x163;" horiz-adv-x="312" 
d="M199 0h-20l-32 -47q4 1 10 2t7 1q4 1 11 1q29 0 46 -14q18 -15 18 -41q0 -32 -27 -52q-28 -20 -70 -20q-17 0 -44 8q-12 3 -33 12l13 30q16 -5 28 -7q20 -5 28 -5q22 0 31 9q10 10 10 20q0 15 -11 21q-10 6 -22 6q-4 0 -14 -2t-16 -4l-47 42l75 40h-27v817h-103v86h292
v-86h-103v-817z" />
    <glyph glyph-name="Tcaron" unicode="&#x164;" horiz-adv-x="312" 
d="M108 950l-78 100h77l43 -57l44 57h77l-78 -100h-85zM113 0v817h-103v86h292v-86h-103v-817h-86z" />
    <glyph glyph-name="tcaron" unicode="&#x165;" horiz-adv-x="312" 
d="M108 950l-78 100h77l43 -57l44 57h77l-78 -100h-85zM113 0v817h-103v86h292v-86h-103v-817h-86z" />
    <glyph glyph-name="Tbar" unicode="&#x166;" horiz-adv-x="312" 
d="M302 817h-103v-322h43v-86h-43v-409h-86v409h-46v86h46v322h-103v86h292v-86z" />
    <glyph glyph-name="tbar" unicode="&#x167;" horiz-adv-x="312" 
d="M302 817h-103v-322h43v-86h-43v-409h-86v409h-46v86h46v322h-103v86h292v-86z" />
    <glyph glyph-name="Umacron" unicode="&#x16a;" 
d="M30 950v50h236v-50h-236zM154 -15q-52 0 -88 37.5t-36 90.5v790h86v-790q0 -17 11 -29.5t27 -12.5t27 12.5t11 29.5v790h86v-790q0 -53 -36 -90.5t-88 -37.5z" />
    <glyph glyph-name="umacron" unicode="&#x16b;" 
d="M30 950v50h236v-50h-236zM154 -15q-52 0 -88 37.5t-36 90.5v790h86v-790q0 -17 11 -29.5t27 -12.5t27 12.5t11 29.5v790h86v-790q0 -53 -36 -90.5t-88 -37.5z" />
    <glyph glyph-name="Uring" unicode="&#x16e;" 
d="M165 950q-30 0 -51 21t-21 51t21 52q21 21 51 21q29 0 52 -21q21 -22 21 -52t-21 -51q-23 -21 -52 -21zM165 983q16 0 28 12q11 11 11 28t-11 27q-12 12 -28 12t-28 -12q-11 -10 -11 -27t11 -28q12 -12 28 -12zM154 -15q-52 0 -88 37.5t-36 90.5v790h86v-790
q0 -17 11 -29.5t27 -12.5t27 12.5t11 29.5v790h86v-790q0 -53 -36 -90.5t-88 -37.5z" />
    <glyph glyph-name="uring" unicode="&#x16f;" 
d="M165 950q-30 0 -51 21t-21 51t21 52q21 21 51 21q29 0 52 -21q21 -22 21 -52t-21 -51q-23 -21 -52 -21zM165 983q16 0 28 12q11 11 11 28t-11 27q-12 12 -28 12t-28 -12q-11 -10 -11 -27t11 -28q12 -12 28 -12zM154 -15q-52 0 -88 37.5t-36 90.5v790h86v-790
q0 -17 11 -29.5t27 -12.5t27 12.5t11 29.5v790h86v-790q0 -53 -36 -90.5t-88 -37.5z" />
    <glyph glyph-name="Uhungarumlaut" unicode="&#x170;" 
d="M44 950l49 97h97l-81 -97h-65zM190 950l49 97h97l-81 -97h-65zM154 -15q-52 0 -88 37.5t-36 90.5v790h86v-790q0 -17 11 -29.5t27 -12.5t27 12.5t11 29.5v790h86v-790q0 -53 -36 -90.5t-88 -37.5z" />
    <glyph glyph-name="uhungarumlaut" unicode="&#x171;" 
d="M44 950l49 97h97l-81 -97h-65zM190 950l49 97h97l-81 -97h-65zM154 -15q-52 0 -88 37.5t-36 90.5v790h86v-790q0 -17 11 -29.5t27 -12.5t27 12.5t11 29.5v790h86v-790q0 -53 -36 -90.5t-88 -37.5z" />
    <glyph glyph-name="Uogonek" unicode="&#x172;" 
d="M192 903h86v-790q0 -42 -24.5 -76t-62.5 -46q-18 -15 -28 -25q-12 -14 -12 -29q0 -17 12 -26t29 -9q11 0 17 2q9 2 19 6v-52q-15 -6 -27 -9q-20 -5 -43 -5q-37 0 -62 22q-24 21 -24 50q0 33 30 60q13 11 18 14q-39 11 -64.5 45.5t-25.5 77.5v790h86v-790q0 -17 11 -29.5
t27 -12.5t27 12.5t11 29.5v790z" />
    <glyph glyph-name="uogonek" unicode="&#x173;" 
d="M192 903h86v-790q0 -42 -24.5 -76t-62.5 -46q-18 -15 -28 -25q-12 -14 -12 -29q0 -17 12 -26t29 -9q11 0 17 2q9 2 19 6v-52q-15 -6 -27 -9q-20 -5 -43 -5q-37 0 -62 22q-24 21 -24 50q0 33 30 60q13 11 18 14q-39 11 -64.5 45.5t-25.5 77.5v790h86v-790q0 -17 11 -29.5
t27 -12.5t27 12.5t11 29.5v790z" />
    <glyph glyph-name="Wcircumflex" unicode="&#x174;" horiz-adv-x="488" 
d="M121 950l78 100h85l78 -100h-77l-44 56l-43 -56h-77zM105 0l-95 903h86l53 -494l52 494h86l52 -494l53 494h86l-95 -903h-87l-52 490l-52 -490h-87z" />
    <glyph glyph-name="wcircumflex" unicode="&#x175;" horiz-adv-x="488" 
d="M121 950l78 100h85l78 -100h-77l-44 56l-43 -56h-77zM105 0l-95 903h86l53 -494l52 494h86l52 -494l53 494h86l-95 -903h-87l-52 490l-52 -490h-87z" />
    <glyph glyph-name="Ycircumflex" unicode="&#x176;" horiz-adv-x="283" 
d="M21 950l78 100h85l78 -100h-77l-44 56l-43 -56h-77zM98 0v374l-88 529h87l44 -265l45 265h87l-89 -529v-374h-86z" />
    <glyph glyph-name="ycircumflex" unicode="&#x177;" horiz-adv-x="283" 
d="M21 950l78 100h85l78 -100h-77l-44 56l-43 -56h-77zM98 0v374l-88 529h87l44 -265l45 265h87l-89 -529v-374h-86z" />
    <glyph glyph-name="Ydieresis" unicode="&#x178;" horiz-adv-x="283" 
d="M30 950v79h86v-79h-86zM163 950v79h87v-79h-87zM98 0v374l-88 529h87l44 -265l45 265h87l-89 -529v-374h-86z" />
    <glyph glyph-name="Zacute" unicode="&#x179;" horiz-adv-x="296" 
d="M108 950l64 100h105l-101 -100h-68zM10 0l170 817h-166v86h272l-170 -817h166v-86h-272z" />
    <glyph glyph-name="zacute" unicode="&#x17a;" horiz-adv-x="296" 
d="M108 950l64 100h105l-101 -100h-68zM10 0l170 817h-166v86h272l-170 -817h166v-86h-272z" />
    <glyph glyph-name="Zdotaccent" unicode="&#x17b;" horiz-adv-x="296" 
d="M109 950v79h86v-79h-86zM10 0l170 817h-166v86h272l-170 -817h166v-86h-272z" />
    <glyph glyph-name="zdotaccent" unicode="&#x17c;" horiz-adv-x="296" 
d="M109 950v79h86v-79h-86zM10 0l170 817h-166v86h272l-170 -817h166v-86h-272z" />
    <glyph glyph-name="Zcaron" unicode="&#x17d;" horiz-adv-x="296" 
d="M108 950l-78 100h77l43 -57l44 57h77l-78 -100h-85zM10 0l170 817h-166v86h272l-170 -817h166v-86h-272z" />
    <glyph glyph-name="zcaron" unicode="&#x17e;" horiz-adv-x="296" 
d="M108 950l-78 100h77l43 -57l44 57h77l-78 -100h-85zM10 0l170 817h-166v86h272l-170 -817h166v-86h-272z" />
    <glyph glyph-name="Scommaaccent" unicode="&#x218;" horiz-adv-x="288" 
d="M144 -15q-52 0 -88 37.5t-36 90.5v146h86v-146q0 -17 11 -29.5t27 -12.5t27 12.5t11 29.5v77q0 131 -52 248l-68 152q-42 94 -42 200q0 53 36 90.5t88 37.5t88 -37.5t36 -90.5v-119h-86v119q0 17 -11 29.5t-27 12.5t-27 -12.5t-11 -29.5q0 -86 35 -165l68 -152
q59 -136 59 -283v-77q0 -53 -36 -90.5t-88 -37.5zM30 -128l64 100h105l-101 -100h-68z" />
    <glyph glyph-name="scommaaccent" unicode="&#x219;" horiz-adv-x="288" 
d="M144 -15q-52 0 -88 37.5t-36 90.5v146h86v-146q0 -17 11 -29.5t27 -12.5t27 12.5t11 29.5v77q0 131 -52 248l-68 152q-42 94 -42 200q0 53 36 90.5t88 37.5t88 -37.5t36 -90.5v-119h-86v119q0 17 -11 29.5t-27 12.5t-27 -12.5t-11 -29.5q0 -86 35 -165l68 -152
q59 -136 59 -283v-77q0 -53 -36 -90.5t-88 -37.5zM30 -128l64 100h105l-101 -100h-68z" />
    <glyph glyph-name="uni021A" unicode="&#x21a;" horiz-adv-x="312" 
d="M113 0v817h-103v86h292v-86h-103v-817h-86zM72 -128l64 100h105l-101 -100h-68z" />
    <glyph glyph-name="uni021B" unicode="&#x21b;" horiz-adv-x="312" 
d="M113 0v817h-103v86h292v-86h-103v-817h-86zM72 -128l64 100h105l-101 -100h-68z" />
    <glyph glyph-name="gravecomb" unicode="&#x300;" horiz-adv-x="0" 
d="M-101 950l-100 100h105l64 -100h-69z" />
    <glyph glyph-name="acutecomb" unicode="&#x301;" horiz-adv-x="0" 
d="M-121 950l64 100h105l-101 -100h-68z" />
    <glyph glyph-name="uni0302" unicode="&#x302;" horiz-adv-x="0" 
d="M-271 950l78 100h85l78 -100h-77l-44 56l-43 -56h-77z" />
    <glyph glyph-name="tildecomb" unicode="&#x303;" horiz-adv-x="0" 
d="M-280 938q8 36 19 52q21 31 63 31q12 0 18 -2q9 -1 14 -4l32 -12l18 -6q3 -1 10 -1q16 0 22 8q8 11 10 20h44q-6 -34 -24 -58t-52 -24q-9 0 -29 5l-21 6l-27 9q-6 3 -11 3q-4 1 -11 1q-13 0 -20 -7q-9 -7 -12 -21h-43z" />
    <glyph glyph-name="uni0304" unicode="&#x304;" horiz-adv-x="0" 
d="M-266 950v50h236v-50h-236z" />
    <glyph glyph-name="uni0306" unicode="&#x306;" horiz-adv-x="0" 
d="M-121 951q-51 0 -80 24q-30 24 -34 76h45q5 -32 32 -42q15 -6 37 -6q23 0 38 6q27 10 32 42h45q-4 -52 -34 -76q-28 -24 -81 -24z" />
    <glyph glyph-name="uni0307" unicode="&#x307;" horiz-adv-x="0" 
d="M-37 950v79h86v-79h-86z" />
    <glyph glyph-name="uni0308" unicode="&#x308;" horiz-adv-x="0" 
d="M-239 950v79h86v-79h-86zM-106 950v79h87v-79h-87z" />
    <glyph glyph-name="uni030A" unicode="&#x30a;" horiz-adv-x="0" 
d="M-40 950q-30 0 -51 21t-21 51t21 52q21 21 51 21t52 -21q21 -22 21 -52t-21 -51q-22 -21 -52 -21zM-40 983q16 0 28 12q11 11 11 28t-11 27q-12 12 -28 12t-28 -12q-11 -10 -11 -27t11 -28q12 -12 28 -12z" />
    <glyph glyph-name="uni030B" unicode="&#x30b;" horiz-adv-x="0" 
d="M-308 950l49 97h97l-81 -97h-65zM-162 950l49 97h97l-81 -97h-65z" />
    <glyph glyph-name="uni030C" unicode="&#x30c;" horiz-adv-x="0" 
d="M-193 950l-78 100h77l43 -57l44 57h77l-78 -100h-85z" />
    <glyph glyph-name="uni0312" unicode="&#x312;" horiz-adv-x="0" 
d="M-117 825v73q0 24 5 41q4 20 19 36l27 -20q-12 -18 -13 -45h49v-85h-87z" />
    <glyph glyph-name="uni0326" unicode="&#x326;" horiz-adv-x="0" 
d="M-199 -128l64 100h105l-101 -100h-68z" />
    <glyph glyph-name="uni0327" unicode="&#x327;" horiz-adv-x="0" 
d="M-68 -170q-17 0 -44 8q-12 3 -33 12l13 30q16 -5 28 -7q20 -5 28 -5q22 0 31 9q10 10 10 20q0 15 -11 21q-10 6 -22 6q-4 0 -14 -2t-16 -4l-47 42l75 40h39l-32 -47q4 1 10 2t7 1q4 1 11 1q29 0 46 -14q18 -15 18 -41q0 -32 -27 -52q-28 -20 -70 -20z" />
    <glyph glyph-name="uni0328" unicode="&#x328;" horiz-adv-x="0" 
d="M-100 -156q-37 0 -62 22q-24 21 -24 50q0 33 30 60q15 14 57 38h64l-24 -17q-20 -15 -36 -31q-12 -14 -12 -29q0 -17 12 -26t29 -9q11 0 17 2q9 2 19 6v-52q-15 -6 -27 -9q-20 -5 -43 -5z" />
    <glyph glyph-name="uni0335" unicode="&#x335;" horiz-adv-x="0" 
d="M-534 409v86h175v-86h-175z" />
    <glyph glyph-name="uni0336" unicode="&#x336;" horiz-adv-x="0" 
d="M-500 546v86h242v-86h-242z" />
    <glyph glyph-name="uni0337" unicode="&#x337;" horiz-adv-x="0" 
d="M-449 0l327 900h92l-328 -900h-91z" />
    <glyph glyph-name="uni0338" unicode="&#x338;" horiz-adv-x="0" 
d="M-541 0l327 900h92l-328 -900h-91z" />
    <glyph glyph-name="Wgrave" unicode="&#x1e80;" horiz-adv-x="488" 
d="M240 950l-100 100h105l64 -100h-69zM105 0l-95 903h86l53 -494l52 494h86l52 -494l53 494h86l-95 -903h-87l-52 490l-52 -490h-87z" />
    <glyph glyph-name="wgrave" unicode="&#x1e81;" horiz-adv-x="488" 
d="M240 950l-100 100h105l64 -100h-69zM105 0l-95 903h86l53 -494l52 494h86l52 -494l53 494h86l-95 -903h-87l-52 490l-52 -490h-87z" />
    <glyph glyph-name="Wacute" unicode="&#x1e82;" horiz-adv-x="488" 
d="M180 950l64 100h105l-101 -100h-68zM105 0l-95 903h86l53 -494l52 494h86l52 -494l53 494h86l-95 -903h-87l-52 490l-52 -490h-87z" />
    <glyph glyph-name="wacute" unicode="&#x1e83;" horiz-adv-x="488" 
d="M180 950l64 100h105l-101 -100h-68zM105 0l-95 903h86l53 -494l52 494h86l52 -494l53 494h86l-95 -903h-87l-52 490l-52 -490h-87z" />
    <glyph glyph-name="Wdieresis" unicode="&#x1e84;" horiz-adv-x="488" 
d="M131 950v79h86v-79h-86zM264 950v79h87v-79h-87zM105 0l-95 903h86l53 -494l52 494h86l52 -494l53 494h86l-95 -903h-87l-52 490l-52 -490h-87z" />
    <glyph glyph-name="wdieresis" unicode="&#x1e85;" horiz-adv-x="488" 
d="M131 950v79h86v-79h-86zM264 950v79h87v-79h-87zM105 0l-95 903h86l53 -494l52 494h86l52 -494l53 494h86l-95 -903h-87l-52 490l-52 -490h-87z" />
    <glyph glyph-name="Ygrave" unicode="&#x1ef2;" horiz-adv-x="283" 
d="M128 950l-100 100h105l64 -100h-69zM98 0v374l-88 529h87l44 -265l45 265h87l-89 -529v-374h-86z" />
    <glyph glyph-name="ygrave" unicode="&#x1ef3;" horiz-adv-x="283" 
d="M128 950l-100 100h105l64 -100h-69zM98 0v374l-88 529h87l44 -265l45 265h87l-89 -529v-374h-86z" />
    <glyph glyph-name="endash" unicode="&#x2013;" horiz-adv-x="501" 
d="M30 409v86h441v-86h-441z" />
    <glyph glyph-name="emdash" unicode="&#x2014;" horiz-adv-x="686" 
d="M30 409v86h626v-86h-626z" />
    <glyph glyph-name="quotesinglbase" unicode="&#x201a;" horiz-adv-x="147" 
d="M93 -66l-27 20q12 18 13 45h-49v166h87v-154q0 -24 -5 -41q-4 -20 -19 -36z" />
    <glyph glyph-name="quotedblbase" unicode="&#x201e;" horiz-adv-x="147" 
d="M30 165h87v-154q0 -24 -5 -41q-4 -20 -19 -36l-27 20q12 18 13 45h-49v166z" />
    <glyph glyph-name="bullet" unicode="&#x2022;" horiz-adv-x="289" 
d="M145 337q-48 0 -81.5 33.5t-33.5 81.5q0 47 33.5 81t81.5 34q47 0 80.5 -34t33.5 -81q0 -48 -33.5 -81.5t-80.5 -33.5z" />
    <glyph glyph-name="ellipsis" unicode="&#x2026;" horiz-adv-x="425" 
d="M30 0v165h87v-165h-87zM172 0v165h87v-165h-87zM308 0v165h87v-165h-87z" />
    <glyph glyph-name="perthousand" unicode="&#x2030;" horiz-adv-x="1074" 
d="M170 0l327 900h92l-328 -900h-91zM162 460q-55 0 -93.5 39t-38.5 94v72q0 55 38.5 94t93.5 39t94 -39t39 -94v-72q0 -55 -39 -94t-94 -39zM162 546q20 0 33.5 14t13.5 33v72q0 19 -13.5 33t-33.5 14q-19 0 -32.5 -14t-13.5 -33v-72q0 -19 13.5 -33t32.5 -14zM593 57
q-55 0 -94 39t-39 94v72q0 55 39 94t94 39t94 -39t39 -94v-72q0 -55 -39 -94t-94 -39zM911 57q-55 0 -94 39t-39 94v72q0 55 39 94t94 39t94 -39t39 -94v-72q0 -55 -39 -94t-94 -39zM593 143q19 0 33 13.5t14 33.5v72q0 19 -14 32.5t-33 13.5t-33 -13.5t-14 -32.5v-72
q0 -20 14 -33.5t33 -13.5zM911 143q19 0 33 13.5t14 33.5v72q0 19 -14 32.5t-33 13.5t-33 -13.5t-14 -32.5v-72q0 -20 14 -33.5t33 -13.5z" />
    <glyph glyph-name="guilsinglleft" unicode="&#x2039;" horiz-adv-x="463" 
d="M383 201l-353 251l353 250l50 -70l-254 -180l254 -181z" />
    <glyph glyph-name="guilsinglright" unicode="&#x203a;" horiz-adv-x="464" 
d="M80 202l-50 70l255 180l-255 181l50 70l354 -251z" />
    <glyph glyph-name="Euro" unicode="&#x20ac;" horiz-adv-x="342" 
d="M188 -15q-52 0 -88.5 37.5t-36.5 90.5v293h-33v47h33v40h-33v48h33v249q0 53 36.5 90.5t88.5 37.5q51 0 87.5 -37.5t36.5 -90.5v-139h-86v139q0 17 -11 29.5t-27 12.5t-27.5 -12.5t-11.5 -29.5v-249h120v-48h-120v-40h120v-47h-120v-293q0 -17 11.5 -29.5t27.5 -12.5
t27 12.5t11 29.5v135h86v-135q0 -53 -36.5 -90.5t-87.5 -37.5z" />
    <glyph glyph-name="trademark" unicode="&#x2122;" horiz-adv-x="519" 
d="M97 502v147h-67v51h187v-51h-68v-147h-52zM252 502v198h55l64 -123l64 123h54v-198h-51v94l-43 -82h-50l-42 81v-93h-51z" />
    <glyph glyph-name="partialdiff" unicode="&#x2202;" horiz-adv-x="324" 
d="M170 -15q-52 0 -88 36.5t-36 88.5v295q0 52 36 88.5t88 36.5q14 0 31 -5q-12 102 -42 182.5t-72 119.5q-30 27 -57 27v86q62 0 115 -50q69 -64 109 -194.5t40 -290.5v-295q0 -52 -36 -88.5t-88 -36.5zM170 71q16 0 27 11.5t11 27.5v295q0 16 -11 27t-27 11t-27 -11
t-11 -27v-295q0 -16 11 -27.5t27 -11.5z" />
    <glyph glyph-name="minus" unicode="&#x2212;" horiz-adv-x="372" 
d="M30 409v86h312v-86h-312z" />
    <glyph glyph-name="approxequal" unicode="&#x2248;" horiz-adv-x="550" 
d="M30 447q16 72 37 102q40 61 124 61q23 0 35 -4q16 -3 27 -8l63 -23l35 -12q6 -2 20 -2q30 0 43 16q16 23 20 39h86q-11 -65 -47 -114q-36 -47 -102 -47q-17 0 -57 10q-20 5 -41 12l-53 17q-12 6 -22 6q-7 2 -21 2q-26 0 -39 -13q-17 -14 -24 -42h-84zM30 259
q16 72 37 102q40 61 124 61q23 0 35 -4q17 -3 27 -8l63 -23l35 -12q6 -2 20 -2q30 0 43 16q16 23 20 39h86q-11 -65 -47 -114q-36 -47 -102 -47q-17 0 -57 10q-20 5 -41 12l-53 17q-12 6 -22 6q-7 2 -21 2q-26 0 -39 -13q-17 -14 -24 -42h-84z" />
    <glyph glyph-name="notequal" unicode="&#x2260;" horiz-adv-x="372" 
d="M53 264l30 65h-53v86h92l34 75h-126v86h166l24 54h102l-25 -54h45v-86h-85l-34 -75h119v-86h-158l-30 -65h-101z" />
    <glyph glyph-name="lessequal" unicode="&#x2264;" horiz-adv-x="464" 
d="M383 201l-353 251l353 250l50 -70l-254 -180l254 -181zM30 38v86h404v-86h-404z" />
    <glyph glyph-name="greaterequal" unicode="&#x2265;" horiz-adv-x="464" 
d="M80 202l-50 70l255 180l-255 181l50 70l354 -251zM30 38v86h404v-86h-404z" />
    <glyph glyph-name="lozenge" unicode="&#x25ca;" horiz-adv-x="481" 
d="M240 154l-210 298l210 297l211 -297zM240 303l105 149l-105 148l-105 -148z" />
    <glyph glyph-name="i.loclTRK" horiz-adv-x="166" 
d="M40 950v79h86v-79h-86zM40 0v903h86v-903h-86z" />
    </font>
</defs>
</svg>
