<?xml version="1.0" standalone="no"?>
<!DOCTYPE svg PUBLIC "-//W3C//DTD SVG 20010904//EN"
 "http://www.w3.org/TR/2001/REC-SVG-20010904/DTD/svg10.dtd">
<svg version="1.0" xmlns="http://www.w3.org/2000/svg"
 width="875.000000pt" height="875.000000pt" viewBox="0 0 875.000000 875.000000"
 preserveAspectRatio="xMidYMid meet">
<metadata>
Created by potrace 1.11, written by Peter Selinger 2001-2013
</metadata>
<g transform="translate(0.000000,875.000000) scale(0.100000,-0.100000)"
fill="#000000" stroke="none">
<path d="M1030 8710 c0 -19 -1 -425 -1 -902 0 -601 -4 -868 -11 -868 -15 0
-126 -81 -179 -132 -153 -145 -267 -380 -287 -588 -4 -41 -7 -518 -7 -1060 l0
-985 363 -1 362 -1 1 389 c0 213 0 944 0 1623 0 679 0 1533 0 1898 l-1 662
-120 0 -120 1 0 -36z"/>
<path d="M1396 8740 c-1 -3 -2 -601 -2 -1330 l1 -1325 483 -3 484 -2 -7 87
c-14 196 -78 376 -188 523 -56 76 -153 169 -223 215 -33 21 -61 40 -64 42 -3
3 -6 406 -6 896 -1 491 -2 894 -3 897 0 3 -107 5 -237 5 -130 0 -237 -2 -238
-5z"/>
<path d="M3350 6644 l0 -2102 520 0 520 0 -3 202 -2 201 -305 1 c-168 1 -310
2 -316 3 -9 1 -12 472 -12 1879 -1 1032 -1 1886 -1 1898 -1 21 -5 21 -201 21
l-200 0 0 -2103z"/>
<path d="M4806 8727 c-122 -68 -245 -248 -270 -397 -10 -59 -13 -427 -13
-1687 0 -886 4 -1639 8 -1672 27 -194 153 -370 324 -450 342 -161 734 39 814
417 8 37 11 531 11 1700 0 1825 4 1704 -66 1850 -41 85 -152 206 -221 241 -40
20 -56 21 -295 20 -240 -1 -255 -2 -292 -22z m374 -346 c19 -10 49 -38 65 -62
l30 -44 1 -1625 c1 -1084 -2 -1635 -9 -1655 -30 -88 -99 -133 -192 -126 -40 2
-104 54 -126 101 l-22 45 0 1621 c0 1799 -5 1653 66 1722 54 52 113 59 187 23z"/>
<path d="M6223 8723 c-143 -98 -230 -236 -259 -408 -9 -52 -9 -3263 0 -3332 7
-64 43 -164 81 -229 62 -108 202 -219 320 -256 58 -18 71 -20 155 -22 268 -9
497 165 572 434 20 69 21 102 22 432 l2 357 -203 1 -202 0 0 -334 c0 -359 -3
-379 -54 -434 -88 -94 -234 -62 -281 62 -15 38 -16 192 -14 1667 l3 1625 27
41 c83 126 244 110 303 -30 14 -33 16 -91 16 -381 l1 -343 198 0 c175 0 199 2
202 16 6 24 1 691 -5 732 -18 114 -86 245 -170 328 -106 104 -92 101 -403 101
l-271 0 -40 -27z"/>
<path d="M7769 8731 c0 -15 -2 -31 -13 -116 -3 -22 -8 -62 -11 -90 -3 -27 -10
-81 -15 -120 -10 -70 -17 -126 -26 -200 -2 -22 -6 -56 -9 -75 -2 -19 -7 -57
-10 -85 -3 -27 -10 -86 -16 -130 -14 -116 -26 -211 -34 -277 -3 -21 -7 -55
-10 -75 -2 -21 -7 -65 -11 -98 -3 -33 -8 -62 -9 -65 -2 -3 -6 -39 -10 -80 -3
-41 -8 -82 -10 -90 -2 -8 -7 -43 -10 -78 -4 -35 -8 -72 -10 -82 -2 -10 -6 -43
-9 -72 -4 -29 -8 -62 -10 -73 -2 -11 -7 -49 -11 -85 -3 -36 -8 -76 -10 -90 -2
-14 -9 -65 -15 -115 -6 -49 -13 -106 -15 -125 -3 -19 -7 -56 -10 -83 -3 -26
-7 -60 -9 -75 -3 -15 -7 -49 -11 -77 -3 -27 -8 -66 -10 -85 -3 -19 -12 -93
-20 -163 -9 -70 -18 -147 -21 -170 -3 -23 -9 -73 -14 -112 -13 -96 -18 -140
-26 -210 -3 -33 -8 -67 -9 -75 -2 -8 -6 -44 -10 -80 -4 -36 -8 -72 -10 -80 -2
-8 -6 -44 -10 -80 -4 -36 -8 -72 -10 -80 -2 -8 -6 -44 -10 -80 -4 -36 -9 -78
-11 -95 -7 -55 -34 -269 -39 -315 -3 -25 -8 -59 -11 -77 l-5 -32 200 1 200 1
5 36 c5 31 15 113 31 241 2 19 7 53 9 75 3 22 12 96 21 165 18 142 24 194 30
230 5 32 18 142 18 155 0 10 411 15 420 5 5 -5 9 -35 22 -145 3 -27 8 -66 10
-85 3 -19 9 -75 15 -125 6 -49 13 -101 15 -115 2 -14 6 -52 10 -85 3 -33 8
-71 10 -85 4 -26 11 -86 20 -168 3 -26 8 -59 11 -73 l5 -27 202 2 c128 0 201
5 200 11 0 6 -4 39 -8 75 -4 36 -8 72 -10 80 -2 8 -6 44 -10 80 -4 36 -8 72
-10 80 -2 8 -6 44 -10 80 -4 36 -8 72 -10 80 -2 8 -6 44 -10 80 -4 36 -8 72
-10 80 -2 8 -6 44 -10 80 -4 36 -8 72 -10 80 -2 8 -6 44 -10 80 -4 36 -8 72
-10 80 -2 8 -6 44 -10 80 -4 36 -8 72 -10 80 -2 8 -6 44 -10 80 -4 36 -9 73
-11 83 -2 10 -9 64 -15 120 -12 106 -15 125 -23 192 -3 22 -7 63 -11 90 -3 28
-8 61 -10 75 -2 14 -7 52 -11 85 -3 33 -8 67 -9 75 -2 9 -6 43 -10 75 -4 33
-8 71 -11 84 -2 14 -6 51 -9 84 -4 32 -8 66 -10 75 -1 9 -6 46 -10 82 -4 36
-9 74 -11 84 -2 11 -6 44 -9 75 -3 31 -7 65 -9 76 -2 11 -7 49 -11 85 -3 36
-10 90 -15 120 -5 30 -12 82 -15 115 -3 33 -8 71 -10 85 -2 14 -6 48 -9 75 -4
28 -8 61 -11 75 -2 14 -7 52 -10 85 -3 33 -8 71 -10 85 -2 14 -6 52 -10 84 -3
32 -7 62 -9 65 -2 3 -7 36 -10 72 -4 36 -8 76 -11 90 -2 13 -9 67 -15 119 -19
166 -21 175 -25 200 -2 14 -7 52 -10 85 -8 69 -9 82 -19 151 l-7 51 -205 0
c-179 0 -204 -2 -205 -16z m226 -1742 c4 -35 8 -82 11 -104 2 -22 8 -71 14
-110 5 -38 12 -92 16 -120 3 -27 7 -61 9 -75 2 -14 7 -52 10 -85 4 -33 8 -67
10 -75 2 -8 7 -46 11 -85 3 -38 8 -72 9 -75 2 -3 6 -39 10 -80 4 -41 15 -130
24 -197 l17 -123 -25 0 c-46 -1 -225 -1 -259 -1 l-34 1 7 58 c3 31 8 68 10 82
2 14 6 48 10 75 3 28 8 61 10 75 5 32 15 111 20 164 3 22 7 56 10 74 6 46 25
190 30 232 10 84 26 207 30 226 1 11 7 52 11 90 4 38 9 72 10 77 1 4 2 24 3
45 3 53 17 16 26 -69z"/>
<path d="M1398 5947 c-2 -7 -4 -408 -4 -892 l1 -880 250 0 250 0 0 890 0 890
-247 2 c-180 1 -248 -2 -250 -10z"/>
<path d="M2019 5941 c-1 -24 -1 -3574 0 -3586 1 -7 62 -10 169 -10 l167 0 3
1808 2 1808 -170 -2 c-149 -1 -170 -4 -171 -18z"/>
<path d="M7800 4342 c-14 -2 -47 -10 -75 -19 -210 -67 -346 -215 -406 -443
-16 -62 -16 -3331 0 -3405 35 -157 123 -287 251 -374 110 -74 206 -101 344
-96 146 6 260 58 372 169 95 94 148 199 170 331 9 53 9 3276 0 3339 -14 100
-66 219 -125 288 -45 53 -58 65 -96 94 -72 54 -153 93 -230 110 -27 6 -174 11
-205 6z m165 -421 c16 -9 43 -36 60 -60 l30 -43 3 -1621 c2 -1132 0 -1633 -8
-1659 -49 -172 -282 -172 -330 0 -7 25 -10 569 -10 1653 l0 1615 28 45 c35 54
48 65 98 83 44 16 85 11 129 -13z"/>
<path d="M3265 4226 c4 -33 8 -72 10 -86 7 -49 15 -106 20 -155 3 -27 8 -61
10 -75 2 -14 7 -50 10 -80 6 -54 11 -97 19 -155 2 -16 7 -55 10 -85 9 -73 16
-129 21 -160 2 -14 7 -50 10 -80 6 -61 15 -132 21 -170 2 -14 6 -50 9 -80 3
-30 8 -67 11 -82 3 -14 7 -46 9 -70 3 -23 7 -59 10 -78 2 -19 7 -53 9 -75 10
-77 17 -130 22 -170 3 -22 7 -53 9 -70 9 -88 16 -153 20 -175 3 -14 7 -47 11
-75 3 -27 7 -61 10 -75 2 -14 6 -54 9 -90 4 -36 8 -72 10 -80 2 -8 7 -42 10
-75 4 -33 8 -71 11 -85 2 -14 6 -50 9 -80 3 -30 8 -65 11 -78 2 -12 7 -47 10
-76 2 -29 6 -63 9 -74 2 -12 7 -52 10 -89 4 -37 9 -70 10 -73 2 -3 6 -39 10
-80 4 -41 9 -84 11 -95 3 -11 7 -40 9 -65 3 -25 7 -58 10 -75 2 -16 7 -57 10
-90 3 -33 8 -71 10 -85 3 -14 7 -47 11 -75 3 -27 7 -60 9 -73 2 -13 7 -53 11
-90 3 -37 8 -76 10 -87 2 -11 7 -44 10 -74 3 -30 7 -62 9 -70 2 -9 6 -45 10
-81 4 -36 8 -72 10 -80 2 -8 6 -42 9 -75 4 -33 9 -69 11 -80 2 -11 4 -32 4
-47 l1 -28 205 0 c113 0 206 3 206 8 1 4 3 16 4 27 1 11 5 41 9 67 3 27 9 69
12 95 3 27 7 59 9 73 15 108 23 173 31 249 2 25 6 53 9 61 2 8 7 46 10 84 3
38 7 71 9 75 2 3 7 37 11 74 3 37 8 76 10 85 1 9 6 46 10 82 4 36 9 73 10 82
2 9 6 43 10 75 3 32 10 87 15 123 5 36 12 92 16 125 3 33 8 67 9 75 2 9 6 43
10 75 4 33 8 71 10 85 2 14 9 66 15 115 6 50 13 104 15 120 2 17 7 53 10 80 3
28 8 64 10 80 4 27 17 130 30 238 3 20 7 55 10 77 3 22 7 57 10 78 2 20 7 56
10 80 3 23 7 60 10 82 3 22 7 57 10 78 3 20 12 93 20 162 9 69 18 139 20 156
2 17 12 89 20 160 9 71 18 140 20 154 2 14 6 48 10 75 3 28 10 79 15 114 5 35
8 67 8 70 -1 3 1 24 5 46 4 22 9 65 12 95 3 30 12 102 20 160 8 58 17 128 20
155 4 28 8 61 10 75 2 14 7 50 10 82 l6 56 -201 -1 c-111 0 -203 -3 -204 -6
-2 -3 -7 -33 -10 -66 -4 -33 -9 -67 -11 -75 -2 -8 -6 -42 -10 -75 -3 -33 -12
-112 -21 -175 -8 -63 -16 -131 -19 -150 -9 -81 -18 -146 -20 -160 -2 -8 -6
-49 -10 -90 -4 -41 -8 -77 -10 -80 -2 -3 -6 -34 -9 -70 -4 -36 -9 -76 -11 -90
-5 -30 -15 -108 -30 -239 -4 -30 -8 -61 -10 -70 -1 -9 -6 -45 -10 -81 -4 -36
-9 -72 -10 -80 -2 -8 -6 -44 -10 -80 -4 -36 -8 -72 -10 -80 -1 -8 -6 -44 -10
-80 -4 -36 -9 -73 -10 -82 -2 -9 -6 -43 -10 -75 -3 -32 -7 -69 -10 -83 -2 -14
-7 -50 -10 -80 -3 -30 -8 -68 -10 -85 -27 -191 -47 -354 -46 -377 0 -30 -19
-20 -20 10 0 15 -2 34 -4 43 -1 8 -6 42 -9 75 -4 32 -8 70 -11 84 -2 14 -7 48
-10 75 -3 28 -8 64 -10 80 -2 17 -7 53 -10 80 -3 28 -8 64 -10 80 -3 17 -7 50
-9 75 -3 25 -12 99 -21 165 -21 163 -22 171 -31 240 -3 33 -8 68 -10 79 -2 10
-6 44 -9 75 -3 31 -8 65 -10 76 -2 11 -7 47 -10 80 -4 33 -8 71 -11 85 -2 14
-8 63 -14 110 -6 47 -12 96 -14 110 -3 14 -7 50 -11 81 -3 31 -7 66 -10 77 -2
12 -6 47 -10 79 -3 32 -8 72 -10 88 -2 17 -7 53 -10 80 -3 28 -8 57 -10 65 -2
8 -7 42 -10 74 -3 33 -8 74 -10 93 -10 67 -14 99 -21 157 -3 33 -8 67 -9 75
-2 9 -4 21 -4 27 -1 8 -59 12 -202 12 l-200 0 6 -62z"/>
<path d="M4952 2184 l0 -2104 201 2 202 3 0 2100 0 2100 -201 1 -202 2 0
-2104z"/>
<path d="M5683 4277 c-3 -6 -7 -952 -7 -2104 l-1 -2093 202 0 203 0 2 1186 3
1187 27 -124 c15 -68 46 -203 68 -299 22 -96 45 -195 50 -220 5 -25 28 -124
50 -220 22 -96 45 -195 50 -220 11 -53 15 -69 30 -135 6 -27 13 -57 15 -65 2
-8 13 -58 25 -110 12 -52 28 -122 35 -155 8 -33 23 -98 34 -145 11 -47 22 -97
25 -110 2 -14 11 -54 20 -90 20 -86 67 -290 72 -315 2 -11 6 -32 9 -47 3 -15
9 -37 14 -50 10 -26 11 -32 11 -53 0 -13 29 -15 205 -15 l205 0 0 2104 0 2104
-195 0 c-109 0 -198 -4 -201 -9 -3 -6 -6 -544 -6 -1197 -1 -1183 -1 -1187 -20
-1112 -10 41 -21 86 -23 100 -3 14 -9 40 -14 58 -5 17 -8 32 -6 32 3 0 0 11
-5 26 -6 14 -12 37 -15 52 -2 15 -32 146 -65 291 -33 145 -62 273 -64 285 -3
12 -17 73 -31 136 -15 63 -29 124 -31 135 -2 11 -7 34 -11 50 -4 17 -7 32 -8
35 -1 3 -4 19 -8 35 -4 17 -9 39 -11 50 -3 11 -30 130 -61 265 -31 135 -58
255 -61 267 -2 11 -27 119 -54 240 -28 120 -52 227 -55 239 -4 20 -11 20 -200
21 -126 0 -198 -3 -202 -10z"/>
<path d="M579 4052 l-37 -3 1 -852 0 -852 673 0 c371 0 675 2 675 5 1 3 2 386
3 853 1 559 -2 847 -9 848 -32 2 -1276 3 -1306 1z"/>
<path d="M564 2222 l-22 -3 1 -1065 c0 -585 3 -1064 6 -1065 31 -3 712 -1 716
2 7 7 9 2118 2 2125 -6 6 -664 12 -703 6z"/>
<path d="M1435 2222 l-40 -3 0 -1066 0 -1066 470 1 c259 0 476 1 483 1 18 1
18 2131 0 2132 -41 2 -880 3 -913 1z"/>
</g>
</svg>
