<?xml version="1.0" standalone="no"?>
<!DOCTYPE svg PUBLIC "-//W3C//DTD SVG 20010904//EN"
 "http://www.w3.org/TR/2001/REC-SVG-20010904/DTD/svg10.dtd">
<svg version="1.0" xmlns="http://www.w3.org/2000/svg"
 width="926.000000pt" height="926.000000pt" viewBox="0 0 926.000000 926.000000"
 preserveAspectRatio="xMidYMid meet">
<metadata>
Created by potrace 1.11, written by Peter Selinger 2001-2013
</metadata>
<g transform="translate(0.000000,926.000000) scale(0.100000,-0.100000)"
fill="#000000" stroke="none">
<path d="M1030 8925 c-1 -38 -1 -442 -1 -896 l-1 -827 -70 -48 c-208 -142
-354 -373 -403 -639 -4 -22 -9 -502 -10 -1066 l-3 -1026 364 0 364 0 1 518 c0
286 0 1075 0 1754 0 679 0 1475 0 1768 l-1 532 -120 0 -120 1 0 -71z"/>
<path d="M1399 8995 c-1 0 -2 -600 -3 -1332 l-1 -1333 483 0 484 0 -7 88 c-23
309 -172 576 -411 736 l-69 46 -1 888 c-1 488 -2 892 -3 897 -1 7 -85 10 -236
10 -129 0 -236 0 -236 0z"/>
<path d="M3350 6894 l0 -2103 518 2 517 2 3 198 c2 155 0 197 -10 198 -7 1
-146 3 -308 4 -162 1 -300 3 -307 4 -8 1 -11 470 -11 1884 -1 1035 -1 1889 -1
1898 -1 15 -23 16 -201 16 l-200 0 0 -2103z"/>
<path d="M4784 8959 c-95 -66 -156 -138 -204 -241 -59 -126 -57 -61 -57 -1827
0 -892 4 -1647 9 -1678 37 -234 195 -411 433 -484 40 -12 200 -16 245 -6 14 3
36 8 50 11 65 15 175 82 239 145 72 71 114 138 152 241 l24 65 2 1675 c3 1853
7 1732 -62 1875 -41 86 -115 170 -196 224 l-61 41 -257 0 -258 0 -59 -41z
m408 -335 c21 -13 48 -43 60 -67 l23 -42 1 -1623 1 -1623 -22 -47 c-54 -115
-180 -139 -273 -52 -57 53 -53 -49 -53 1717 0 1474 1 1625 16 1656 33 71 113
120 179 110 17 -2 48 -15 68 -29z"/>
<path d="M6217 8969 c-127 -84 -216 -227 -254 -409 -5 -24 -8 -3197 -3 -3290
8 -146 82 -295 199 -402 100 -90 219 -138 353 -143 231 -8 431 111 537 321 60
119 64 152 65 544 l1 355 -202 1 -202 2 1 -332 c1 -311 -1 -335 -19 -377 -68
-154 -262 -148 -318 10 -13 38 -15 232 -15 1652 0 1602 0 1609 21 1653 25 55
54 82 104 99 86 30 171 -13 210 -106 13 -31 16 -94 17 -381 l1 -343 201 1 201
1 -1 365 c-1 341 -2 370 -22 442 -19 69 -51 138 -89 193 -26 39 -106 115 -151
145 l-45 30 -272 0 -272 0 -46 -31z"/>
<path d="M7769 8971 c0 -14 -2 -35 -5 -46 -2 -11 -6 -38 -8 -60 -3 -22 -8 -62
-11 -90 -3 -27 -8 -66 -11 -86 -9 -71 -20 -156 -29 -244 -3 -27 -8 -61 -10
-75 -3 -14 -7 -50 -10 -80 -3 -30 -7 -64 -9 -75 -2 -11 -7 -49 -11 -85 -4 -36
-9 -72 -10 -80 -2 -8 -6 -42 -9 -75 -4 -33 -8 -71 -11 -85 -2 -14 -6 -45 -9
-70 -8 -69 -57 -462 -61 -490 -2 -14 -9 -70 -15 -125 -6 -55 -13 -111 -15
-125 -2 -14 -7 -52 -11 -85 -3 -33 -8 -67 -9 -75 -2 -8 -6 -44 -10 -80 -4 -36
-8 -72 -10 -80 -2 -8 -6 -44 -10 -80 -4 -36 -8 -72 -10 -80 -2 -8 -6 -44 -9
-80 -4 -36 -9 -76 -11 -90 -2 -14 -7 -43 -9 -65 -9 -73 -15 -119 -20 -160 -3
-22 -13 -98 -21 -170 -9 -71 -18 -141 -20 -155 -2 -14 -7 -54 -10 -90 -4 -36
-8 -72 -10 -80 -2 -8 -6 -44 -10 -80 -4 -36 -9 -74 -11 -85 -2 -11 -7 -45 -10
-75 -3 -30 -7 -66 -9 -80 -2 -14 -7 -50 -10 -80 -3 -30 -8 -66 -10 -80 -2 -14
-7 -50 -10 -80 -3 -30 -8 -67 -11 -82 -2 -15 -6 -47 -9 -70 -7 -69 -15 -130
-21 -170 l-5 -36 200 -1 c183 0 201 1 202 17 0 9 2 26 4 37 4 18 8 51 20 145
2 19 9 71 14 115 6 44 13 103 16 130 4 28 8 62 11 76 2 15 6 47 9 70 8 72 17
143 20 161 2 9 7 48 11 85 3 37 10 70 14 73 5 3 100 5 212 5 l203 0 12 -90 c6
-50 15 -115 18 -145 7 -57 10 -82 20 -165 12 -98 14 -110 19 -155 3 -25 8 -67
11 -95 10 -85 26 -214 31 -235 1 -8 3 -18 3 -22 1 -4 92 -7 204 -5 128 1 201
6 200 12 0 6 -4 39 -8 75 -4 36 -8 72 -10 80 -2 8 -6 44 -10 80 -4 36 -8 72
-10 80 -2 8 -6 44 -9 80 -4 36 -9 76 -11 90 -2 14 -7 44 -10 68 -3 23 -7 60
-10 82 -3 22 -7 58 -10 80 -3 22 -7 58 -10 80 -3 22 -7 59 -10 83 -3 23 -7 58
-10 77 -3 19 -7 53 -9 75 -10 82 -18 151 -22 168 -2 10 -6 45 -9 78 -4 33 -8
68 -10 77 -1 9 -6 46 -10 82 -4 36 -9 73 -10 82 -2 9 -6 43 -10 75 -3 32 -8
69 -10 83 -4 26 -15 114 -21 165 -4 39 -14 113 -19 145 -2 14 -7 52 -10 85 -3
33 -8 71 -10 85 -2 14 -6 46 -10 73 -3 26 -7 68 -10 95 -4 26 -8 58 -10 72 -2
14 -7 50 -10 80 -3 30 -8 66 -10 80 -2 14 -7 50 -10 80 -3 30 -8 66 -10 80 -2
14 -7 50 -10 80 -4 30 -8 66 -10 80 -2 14 -6 52 -10 85 -4 33 -8 67 -10 75 -2
8 -6 44 -10 80 -4 36 -8 72 -10 80 -2 8 -6 44 -10 80 -4 36 -9 73 -11 83 -2
10 -6 48 -10 85 -3 37 -7 69 -9 72 -2 3 -6 37 -10 75 -4 39 -9 77 -10 85 -7
51 -18 138 -20 155 -2 25 -18 158 -20 165 -1 3 -5 37 -10 75 -4 39 -9 77 -11
85 -1 8 -3 20 -3 26 -1 8 -61 12 -206 12 l-205 0 -1 -27z m218 -1653 c1 -26
15 -163 18 -168 1 -3 6 -36 10 -73 3 -37 8 -76 10 -85 1 -9 6 -44 9 -77 4 -33
8 -71 11 -85 2 -14 7 -46 10 -72 9 -82 16 -142 20 -168 2 -14 7 -52 10 -85 4
-33 8 -67 10 -75 2 -8 7 -46 11 -85 3 -38 8 -72 9 -75 2 -3 7 -42 10 -85 l7
-80 -152 2 c-84 1 -155 4 -157 7 -3 3 -1 40 5 83 6 43 14 102 17 132 4 30 8
61 10 70 1 9 6 45 10 81 4 36 8 72 10 80 1 8 6 40 9 70 13 106 17 135 21 160
2 14 7 50 10 80 3 30 8 66 10 80 2 14 7 50 11 80 4 30 8 62 9 70 1 8 5 42 9
75 5 33 9 69 11 80 2 11 4 32 4 48 1 26 17 40 18 15z"/>
<path d="M1399 6207 c-1 -1 -2 -402 -3 -890 -1 -881 -1 -888 19 -892 11 -2
124 -3 250 -2 l230 2 0 890 0 890 -248 2 c-136 1 -248 1 -248 0z"/>
<path d="M2019 6192 c-1 -27 -1 -3544 0 -3572 l1 -25 170 0 170 -1 0 1807 0
1807 -170 1 c-155 1 -170 -1 -171 -17z"/>
<path d="M7790 4590 c-97 -17 -221 -77 -291 -144 -81 -76 -153 -202 -179 -314
-10 -42 -12 -424 -12 -1705 0 -1841 -4 -1720 69 -1860 136 -258 426 -376 695
-282 186 65 343 248 379 442 16 81 16 3356 0 3396 -6 15 -9 27 -6 27 6 0 -18
65 -44 123 -23 51 -98 147 -145 187 -50 42 -134 89 -198 110 -67 22 -197 31
-268 20z m175 -418 c31 -16 63 -54 80 -94 13 -33 15 -217 15 -1655 0 -1548 -1
-1620 -19 -1658 -38 -85 -124 -127 -202 -100 -54 19 -86 49 -110 100 -18 38
-19 105 -19 1663 0 1588 1 1624 20 1661 23 46 71 89 108 97 15 3 32 7 37 8 14
4 67 -9 90 -22z"/>
<path d="M3265 4476 c4 -34 8 -72 10 -86 6 -39 12 -89 40 -315 14 -115 28
-221 30 -235 2 -14 6 -54 10 -90 3 -36 8 -72 10 -80 2 -8 6 -42 10 -75 3 -33
7 -71 10 -85 2 -14 7 -47 10 -75 3 -27 8 -61 10 -75 2 -14 6 -50 10 -81 3 -31
7 -65 9 -75 2 -11 7 -46 10 -79 4 -33 9 -71 11 -85 2 -14 6 -50 10 -81 3 -31
7 -65 9 -75 2 -11 7 -46 10 -79 4 -33 9 -71 11 -85 2 -14 6 -50 10 -80 4 -30
8 -66 10 -80 4 -27 12 -90 21 -167 7 -62 14 -122 19 -153 2 -14 6 -50 10 -81
3 -31 7 -65 9 -75 2 -11 7 -46 10 -79 4 -33 9 -71 11 -85 2 -14 6 -52 10 -85
4 -32 8 -66 10 -75 2 -8 6 -44 10 -80 3 -36 8 -72 10 -80 3 -8 7 -42 10 -75 3
-33 7 -71 10 -85 2 -14 7 -50 10 -80 4 -30 8 -66 10 -80 2 -14 6 -52 10 -85 4
-32 8 -66 10 -75 1 -8 6 -42 9 -75 4 -33 9 -71 11 -85 2 -14 6 -46 9 -72 3
-27 9 -69 12 -95 3 -27 7 -59 9 -73 2 -14 7 -52 11 -85 3 -33 8 -68 9 -77 2
-9 7 -48 11 -85 4 -37 8 -77 10 -88 1 -11 3 -28 3 -37 1 -17 18 -18 205 -18
l204 0 6 27 c5 27 8 55 21 168 3 28 8 61 10 75 4 24 20 154 30 235 4 36 7 59
20 160 2 17 9 71 15 120 6 50 13 101 15 115 2 14 7 50 10 80 3 30 8 66 10 80
2 14 6 50 10 80 3 30 8 66 10 80 2 14 7 50 10 80 4 30 8 66 10 80 2 14 7 50
10 80 3 30 8 62 10 70 2 8 6 44 10 80 3 36 7 76 9 90 8 44 15 94 21 150 3 30
8 66 10 80 4 28 16 121 20 160 6 50 17 145 20 160 2 8 6 44 10 80 4 36 9 74
11 85 2 11 6 43 9 70 3 28 8 67 10 88 3 20 7 55 10 77 7 58 16 121 20 150 2
14 6 52 10 85 3 33 11 92 16 130 6 39 12 88 15 110 2 22 7 60 10 85 9 58 10
62 18 145 4 38 9 72 11 75 2 3 6 38 10 78 3 41 8 81 10 90 1 9 6 42 9 73 4 31
8 65 10 75 2 11 7 46 11 79 4 33 8 71 10 85 2 14 6 54 10 90 4 36 8 72 10 80
2 8 7 40 10 71 l6 56 -203 -1 -203 -1 -11 -80 c-7 -44 -15 -111 -18 -148 -4
-37 -9 -77 -11 -89 -3 -11 -7 -46 -10 -77 -4 -31 -8 -63 -10 -71 -2 -8 -6 -44
-10 -80 -3 -36 -8 -76 -10 -90 -2 -14 -7 -45 -10 -70 -3 -25 -7 -61 -10 -80
-3 -19 -7 -53 -9 -75 -3 -22 -8 -59 -11 -82 -8 -64 -14 -118 -20 -165 -3 -24
-7 -59 -10 -78 -3 -19 -7 -53 -9 -75 -8 -63 -16 -127 -21 -165 -3 -19 -7 -55
-10 -80 -3 -25 -7 -61 -10 -80 -3 -19 -7 -53 -9 -75 -5 -40 -23 -178 -31 -245
-3 -19 -16 -125 -30 -235 -14 -110 -27 -216 -30 -235 -2 -19 -7 -62 -11 -95
-3 -33 -11 -67 -15 -75 -8 -13 -9 -13 -7 0 1 13 -10 120 -17 161 -2 9 -6 40
-10 70 -3 30 -8 65 -10 79 -5 31 -16 124 -20 165 -2 17 -6 44 -8 60 -3 17 -8
55 -11 85 -4 30 -8 64 -10 75 -2 11 -7 47 -10 80 -4 33 -9 74 -11 90 -3 17
-14 102 -25 190 -11 88 -22 174 -24 190 -2 17 -7 55 -11 85 -4 30 -8 66 -10
80 -2 14 -7 52 -11 85 -3 33 -8 67 -9 75 -2 9 -6 43 -10 75 -4 33 -8 71 -10
85 -2 14 -9 66 -15 115 -6 50 -13 104 -15 120 -3 17 -12 86 -20 155 -9 69 -18
138 -21 153 -2 16 -6 45 -8 65 -6 59 -18 154 -21 171 -2 9 -4 21 -4 27 -1 7
-65 11 -202 11 l-200 0 6 -61z"/>
<path d="M4962 4531 c-7 -4 -10 -722 -10 -2104 l0 -2097 201 0 202 0 -1 2098
c-1 1153 -2 2100 -3 2103 -1 8 -376 8 -389 0z"/>
<path d="M5679 4531 c-1 -8 -1 -4184 0 -4193 1 -5 91 -8 201 -8 l200 0 1 1188
c1 678 5 1172 10 1152 13 -56 120 -523 125 -550 3 -14 18 -81 34 -150 25 -109
65 -284 75 -330 2 -8 29 -127 60 -265 32 -137 68 -299 82 -360 13 -60 26 -117
28 -125 32 -137 125 -548 125 -555 0 -3 92 -5 205 -5 l205 0 0 2104 0 2103
-201 -1 -201 -1 0 -1187 c0 -654 -1 -1188 -3 -1188 -3 0 -40 153 -51 210 -3
14 -14 61 -24 105 -39 165 -72 311 -76 329 -2 10 -24 109 -50 220 -25 111 -48
210 -50 221 -5 26 -7 33 -44 195 -17 74 -34 146 -36 160 -3 14 -9 41 -14 60
-5 19 -12 50 -15 69 -3 19 -8 37 -10 41 -2 4 -7 20 -9 36 -9 47 -13 65 -35
156 -20 85 -25 108 -36 166 -3 15 -11 45 -17 67 -5 22 -12 51 -14 65 -5 25
-52 231 -60 261 -4 14 -30 16 -204 16 -110 0 -200 -3 -201 -6z"/>
<path d="M558 4302 c-14 -3 -16 -87 -14 -855 l1 -852 673 0 c369 0 673 2 673
5 7 29 2 1693 -5 1698 -9 5 -1299 10 -1328 4z"/>
<path d="M579 2472 l-37 -3 0 -1060 c1 -707 4 -1062 11 -1066 6 -3 169 -7 364
-7 l353 -1 1 640 c0 352 1 832 2 1068 l2 427 -35 0 c-208 3 -633 4 -661 2z"/>
<path d="M1440 2470 l-45 -5 0 -1062 c0 -938 2 -1063 15 -1064 8 0 224 -1 480
-2 l465 0 3 1066 2 1067 -57 1 c-349 3 -827 3 -863 -1z"/>
</g>
</svg>
